<svg
      width="30"
      height="30"
      viewBox="0 0 30 30"
      fill="none"
      xmlns="http://www.w3.org/2000/svg"
    >
      <path
        d="M11.875 17.1875C11.875 18.4 12.8125 19.375 13.9625 19.375H16.3125C17.3125 19.375 18.125 18.525 18.125 17.4625C18.125 16.325 17.625 15.9125 16.8875 15.65L13.125 14.3375C12.3875 14.075 11.8875 13.675 11.8875 12.525C11.8875 11.475 12.7 10.6125 13.7 10.6125H16.05C17.2 10.6125 18.1375 11.5875 18.1375 12.8M15 9.375V20.625V9.375Z"
        fill="#FFB1B1"
      />
      <path
        fillRule="evenodd"
        clipRule="evenodd"
        d="M15 8.625C15.4142 8.625 15.75 8.96079 15.75 9.375V9.8625H16.05C17.6453 9.8625 18.8875 11.2051 18.8875 12.8C18.8875 13.2142 18.5517 13.55 18.1375 13.55C17.7233 13.55 17.3875 13.2142 17.3875 12.8C17.3875 11.9699 16.7547 11.3625 16.05 11.3625H15.75V14.4589L17.139 14.9434C17.5652 15.0951 18.0297 15.3257 18.3739 15.7665C18.7248 16.2159 18.875 16.7844 18.875 17.4625C18.875 18.9027 17.7623 20.125 16.3125 20.125H15.75V20.625C15.75 21.0392 15.4142 21.375 15 21.375C14.5858 21.375 14.25 21.0392 14.25 20.625V20.125H13.9625C12.3672 20.125 11.125 18.7824 11.125 17.1875C11.125 16.7733 11.4608 16.4375 11.875 16.4375C12.2892 16.4375 12.625 16.7733 12.625 17.1875C12.625 18.0176 13.2578 18.625 13.9625 18.625H14.25V15.5243L12.8735 15.0441C12.4521 14.8941 11.9856 14.6676 11.6398 14.2273C11.2868 13.7778 11.1375 13.2074 11.1375 12.525C11.1375 11.1006 12.2471 9.8625 13.7 9.8625H14.25V9.375C14.25 8.96079 14.5858 8.625 15 8.625ZM14.25 11.3625H13.7C13.1529 11.3625 12.6375 11.8494 12.6375 12.525C12.6375 12.9926 12.7382 13.1972 12.8195 13.3008C12.9079 13.4134 13.0597 13.518 13.3744 13.6302L14.25 13.9356V11.3625ZM15.75 16.0475V18.625H16.3125C16.8627 18.625 17.375 18.1473 17.375 17.4625C17.375 17.0031 17.2752 16.7966 17.1917 16.6897C17.1017 16.5745 16.9481 16.4679 16.6381 16.3573L15.75 16.0475Z"
        fill="#FD2F2F"
      />
      <path
        fillRule="evenodd"
        clipRule="evenodd"
        d="M15 3.25C8.51421 3.25 3.25 8.51421 3.25 15C3.25 21.4858 8.51421 26.75 15 26.75C21.4858 26.75 26.75 21.4858 26.75 15C26.75 14.5858 27.0858 14.25 27.5 14.25C27.9142 14.25 28.25 14.5858 28.25 15C28.25 22.3142 22.3142 28.25 15 28.25C7.68579 28.25 1.75 22.3142 1.75 15C1.75 7.68579 7.68579 1.75 15 1.75C15.4142 1.75 15.75 2.08579 15.75 2.5C15.75 2.91421 15.4142 3.25 15 3.25ZM21.75 2.5C21.75 2.08579 22.0858 1.75 22.5 1.75H27.5C27.9142 1.75 28.25 2.08579 28.25 2.5V7.5C28.25 7.91421 27.9142 8.25 27.5 8.25C27.0858 8.25 26.75 7.91421 26.75 7.5V4.31066L21.7803 9.28033C21.4874 9.57322 21.0126 9.57322 20.7197 9.28033C20.4268 8.98744 20.4268 8.51256 20.7197 8.21967L25.6893 3.25H22.5C22.0858 3.25 21.75 2.91421 21.75 2.5Z"
        fill="#FD2F2F"
      />
    </svg>