<svg width="267" height="263" viewBox="0 0 267 263" fill="none" xmlns="http://www.w3.org/2000/svg">
<path d="M198.53 162.772H241.807V129.388H198.53V162.772Z" fill="#EBEBEB"/>
<path d="M201.627 159.861H206.843V153.968H201.627V159.861Z" fill="white"/>
<path d="M228.613 129.478H223.696V136.599H228.613V129.478Z" fill="#FAFAFA"/>
<path d="M228.613 155.549H223.696V162.67H228.613V155.549Z" fill="#FAFAFA"/>
<path d="M209.334 163.005C209.256 163.005 209.196 155.663 209.196 146.607C209.196 137.552 209.256 130.209 209.334 130.209C209.412 130.209 209.472 137.552 209.472 146.607C209.472 155.663 209.412 163.005 209.334 163.005Z" fill="#E0E0E0"/>
<path d="M180.885 220.262H255.558V162.664H180.885V220.262Z" fill="#EBEBEB"/>
<path d="M186.222 215.231H195.217V205.061H186.222V215.231Z" fill="white"/>
<path d="M232.776 162.814H224.295V175.104H232.776V162.814Z" fill="#FAFAFA"/>
<path d="M232.776 207.798H224.295V220.088H232.776V207.798Z" fill="#FAFAFA"/>
<path d="M199.517 220.657C199.385 220.657 199.278 207.99 199.278 192.364C199.278 176.739 199.385 164.072 199.517 164.072C199.649 164.072 199.757 176.739 199.757 192.364C199.757 207.99 199.649 220.657 199.517 220.657Z" fill="#E0E0E0"/>
<path d="M253.178 42.8695L257.179 50.9728L266.127 52.2724L259.652 58.585L261.18 67.4908L253.178 63.2865L245.183 67.4908L246.71 58.585L240.236 52.2724L249.183 50.9728L253.178 42.8695Z" fill="#EBEBEB"/>
<path d="M14.9851 147.53L17.5065 152.638L23.1483 153.459L19.0697 157.436L20.0279 163.047L14.9851 160.4L9.94822 163.047L10.9065 157.436L6.82788 153.459L12.4696 152.638L14.9851 147.53Z" fill="#EBEBEB"/>
<path d="M18.1171 103.03L23.711 114.374L36.2342 116.188L27.1727 125.022L29.3108 137.486L18.1171 131.604L6.91745 137.486L9.05557 125.022L0 116.188L12.5173 114.374L18.1171 103.03Z" fill="#EBEBEB"/>
<path d="M249.621 79.4691L252.035 84.3562L257.425 85.1408L253.52 88.9499L254.442 94.3221L249.621 91.7827L244.794 94.3221L245.716 88.9499L241.811 85.1408L247.207 84.3562L249.621 79.4691Z" fill="#EBEBEB"/>
<path d="M170.426 0.262817L172.84 5.14995L178.236 5.93453L174.331 9.73762L175.254 15.1099L170.426 12.5765L165.605 15.1099L166.527 9.73762L162.623 5.93453L168.019 5.14995L170.426 0.262817Z" fill="#EBEBEB"/>
<path d="M225.635 52.5719L227.216 55.7701L230.744 56.2851L228.192 58.7706L228.791 62.2922L225.635 60.6273L222.479 62.2922L223.078 58.7706L220.526 56.2851L224.054 55.7701L225.635 52.5719Z" fill="#EBEBEB"/>
<path d="M79.9193 214.099L82.9917 220.327L89.8732 221.328L84.8962 226.179L86.0701 233.03L79.9193 229.796L73.7684 233.03L74.9423 226.179L69.9653 221.328L76.8409 220.327L79.9193 214.099Z" fill="#EBEBEB"/>
<path d="M88.0408 207.9L89.3105 210.475L92.1493 210.889L90.0951 212.895L90.5802 215.722L88.0408 214.386L85.4954 215.722L85.9805 212.895L83.9263 210.889L86.7651 210.475L88.0408 207.9Z" fill="#EBEBEB"/>
<path d="M201.624 184.039L204.331 189.519L210.374 190.394L206.002 194.664L207.032 200.683L201.624 197.838L196.216 200.683L197.246 194.664L192.874 190.394L198.923 189.519L201.624 184.039Z" fill="#DB4537"/>
<path d="M214.524 179.182L215.8 181.763L218.651 182.177L216.591 184.189L217.076 187.028L214.524 185.686L211.979 187.028L212.464 184.189L210.404 182.177L213.255 181.763L214.524 179.182Z" fill="#DB4537"/>
<path d="M197.619 36.5509L199.733 29.927C198.086 26.627 197.308 22.8418 197.661 18.901C198.685 7.56355 208.723 -0.797274 220.072 0.232857C231.428 1.257 239.8 11.2828 238.77 22.6202C237.746 33.9577 227.708 42.3185 216.359 41.2884C211.616 40.8571 207.717 39.1442 204.477 36.1377L197.613 36.5509H197.619Z" fill="#FAFAFA"/>
<path d="M197.618 36.5509C197.618 36.5509 197.78 36.533 198.074 36.515C198.379 36.4911 198.822 36.4611 199.391 36.4192C200.553 36.3413 202.26 36.2215 204.476 36.0718H204.506L204.53 36.0898C206.482 37.8925 209.459 39.8869 213.49 40.7433C214.49 40.9589 215.544 41.1266 216.64 41.1925C217.191 41.2105 217.748 41.2344 218.317 41.2584C218.886 41.2584 219.461 41.1925 220.048 41.1626C222.384 40.947 224.827 40.3181 227.175 39.1682C229.523 38.0243 231.763 36.3653 233.637 34.2272C235.506 32.089 237.027 29.4778 237.871 26.5491C238.716 23.6264 238.926 20.4222 238.381 17.26C238.285 16.4634 238.033 15.6908 237.836 14.9062C237.746 14.5109 237.578 14.1336 237.44 13.7503C237.297 13.373 237.159 12.9837 237.003 12.6064C236.296 11.1331 235.524 9.65375 234.47 8.35411C233.99 7.66536 233.404 7.07843 232.847 6.46754C232.583 6.15011 232.248 5.89857 231.948 5.61708C231.637 5.34757 231.349 5.0541 231.026 4.80855L230.044 4.08386L229.553 3.72451L229.031 3.41308L227.989 2.79021C227.642 2.59257 227.265 2.43685 226.905 2.26316C224.007 0.903631 220.868 0.244827 217.826 0.310707C214.783 0.370599 211.867 1.11325 209.309 2.34701C206.752 3.58077 204.554 5.29367 202.829 7.24612C201.098 9.19858 199.84 11.3846 199.008 13.5766C198.906 13.8521 198.81 14.1276 198.715 14.3971C198.613 14.6667 198.523 14.9362 198.463 15.2177C198.325 15.7687 198.193 16.3137 198.056 16.8467C197.912 17.9367 197.708 18.9848 197.69 20.009C197.523 24.1115 198.607 27.5193 199.787 29.909L199.799 29.933V29.9569C199.092 32.089 198.553 33.7301 198.181 34.85C197.996 35.401 197.858 35.8263 197.762 36.1197C197.666 36.4072 197.613 36.5569 197.613 36.5569C197.613 36.5569 197.648 36.4192 197.732 36.1377C197.822 35.8442 197.954 35.425 198.122 34.874C198.475 33.7361 198.99 32.0711 199.661 29.909V29.9569C198.457 27.5672 197.337 24.1355 197.481 19.991C197.499 18.9549 197.69 17.9008 197.834 16.7988C197.966 16.2598 198.098 15.7088 198.235 15.1518C198.295 14.8703 198.385 14.5948 198.487 14.3193C198.583 14.0438 198.685 13.7683 198.78 13.4868C199.607 11.2708 200.877 9.04885 202.625 7.06645C204.368 5.08405 206.584 3.34121 209.178 2.08349C211.765 0.825773 214.729 0.071142 217.814 0.00526153C220.898 -0.066608 224.084 0.598186 227.031 1.97569C227.396 2.15536 227.774 2.31108 228.127 2.50872L229.181 3.13758L229.708 3.455L230.205 3.82034L231.206 4.557C231.535 4.80855 231.828 5.108 232.146 5.37751C232.451 5.66499 232.787 5.91653 233.056 6.23995C233.619 6.86282 234.218 7.45574 234.703 8.15048C235.769 9.46809 236.56 10.9714 237.273 12.4686C237.434 12.8519 237.566 13.2472 237.716 13.6305C237.853 14.0198 238.027 14.3971 238.117 14.8044C238.321 15.601 238.578 16.3855 238.674 17.1941C239.225 20.4042 239.003 23.6563 238.147 26.621C237.285 29.5916 235.739 32.2388 233.835 34.4008C231.93 36.5689 229.654 38.2399 227.271 39.3898C224.887 40.5457 222.408 41.1746 220.048 41.3842C219.455 41.4141 218.874 41.468 218.299 41.474C217.724 41.4501 217.161 41.4261 216.604 41.4021C215.496 41.3303 214.436 41.1566 213.424 40.935C209.357 40.0546 206.363 38.0123 204.422 36.1796L204.47 36.1976C202.23 36.3174 200.511 36.4072 199.337 36.4671C198.774 36.497 198.337 36.515 198.032 36.533C197.744 36.545 197.601 36.5509 197.601 36.5509H197.618Z" fill="#4B9AC2"/>
<path d="M206.518 19.979L209.914 17.0384L215.64 22.9137L228.462 12.2291L231.181 15.607L214.747 28.9927L206.518 19.979Z" fill="#4B9AC2"/>
<path d="M162.087 183.782L47.2395 209.38C44.4546 210.002 41.6876 208.242 41.0647 205.457L3.78837 38.2101C3.1655 35.4252 4.92631 32.6582 7.71125 32.0353L122.565 6.44378C125.35 5.82091 128.117 7.58172 128.74 10.3667L166.01 177.613C166.633 180.398 164.878 183.165 162.087 183.788V183.782Z" fill="#E0E0E0"/>
<path d="M162.087 183.782C162.087 183.782 162.213 183.74 162.471 183.668C162.722 183.596 163.094 183.453 163.549 183.201C163.992 182.938 164.519 182.542 164.998 181.937C165.471 181.338 165.897 180.518 166.046 179.512C166.13 179.015 166.124 178.47 166.034 177.913C165.938 177.356 165.789 176.775 165.657 176.164C165.382 174.942 165.082 173.6 164.759 172.151C164.106 169.252 163.357 165.904 162.513 162.131C159.141 147.057 154.266 125.238 148.247 98.2871C145.24 84.8056 141.94 70.0424 138.406 54.1951C136.64 46.2715 134.807 38.0724 132.926 29.6337C131.986 25.4114 131.028 21.1291 130.064 16.787C129.578 14.619 129.087 12.4329 128.596 10.2349C128.333 9.16286 127.686 8.19861 126.817 7.50387C125.937 6.8271 124.841 6.42582 123.721 6.43181C123.158 6.43181 122.613 6.53962 122.056 6.67138C121.499 6.79715 120.936 6.92292 120.379 7.04869C119.259 7.30024 118.133 7.55178 117.007 7.80332C114.749 8.30641 112.485 8.8095 110.204 9.31857C105.64 10.3367 101.028 11.3669 96.3627 12.403C87.0317 14.4812 77.509 16.6073 67.8126 18.7694C48.4197 23.0936 28.3382 27.5675 7.77151 32.1551C6.5138 32.4306 5.37586 33.2032 4.66914 34.2753C3.95045 35.3354 3.66297 36.6769 3.89056 37.9406C4.42958 40.492 5.0225 43.0434 5.57949 45.5828C6.71144 50.6615 7.83739 55.7104 8.95137 60.7173C11.1853 70.7371 13.3833 80.6072 15.5454 90.3036C19.8636 109.702 24.032 128.412 28.0028 146.242C31.9736 164.066 35.7408 181.003 39.2684 196.856C39.7116 198.839 40.1488 200.803 40.58 202.75C40.8016 203.72 41.0052 204.702 41.2388 205.648C41.4843 206.589 42.0114 207.439 42.7241 208.086C43.4368 208.733 44.3292 209.164 45.2635 209.332C45.7306 209.409 46.2098 209.421 46.6829 209.374C47.1501 209.314 47.6172 209.2 48.0903 209.092C49.9649 208.673 51.8276 208.26 53.6662 207.852C61.0269 206.217 68.0881 204.642 74.8258 203.145C101.789 197.156 123.607 192.305 138.682 188.957C146.222 187.286 152.074 185.992 156.044 185.112C158.027 184.674 159.542 184.339 160.56 184.117C161.578 183.896 162.099 183.788 162.099 183.788C162.099 183.788 161.578 183.914 160.566 184.141C159.548 184.369 158.039 184.71 156.056 185.159C152.086 186.052 146.234 187.363 138.7 189.052C123.625 192.424 101.813 197.299 74.8558 203.319C68.118 204.822 61.0568 206.397 53.6962 208.044C51.8575 208.457 50.0009 208.87 48.1203 209.29C47.6531 209.391 47.186 209.511 46.6949 209.571C46.2038 209.619 45.7067 209.607 45.2215 209.529C44.2453 209.356 43.317 208.912 42.5803 208.236C41.8437 207.565 41.2867 206.678 41.0352 205.702C40.7956 204.732 40.5979 203.768 40.3763 202.791C39.9391 200.845 39.5019 198.881 39.0587 196.898C35.5251 181.045 31.746 164.108 27.7692 146.284C23.7924 128.46 19.624 109.75 15.2939 90.3515C13.1318 80.6551 10.9338 70.779 8.69983 60.7652C7.58585 55.7583 6.45989 50.7095 5.32795 45.6307C4.76497 43.0853 4.18402 40.5519 3.63302 37.9766C3.39945 36.659 3.6989 35.2455 4.45354 34.1315C5.19619 33.0116 6.38802 32.1971 7.71162 31.9096C28.2783 27.3279 48.3599 22.854 67.7527 18.5299C77.4491 16.3678 86.9778 14.2476 96.3028 12.1694C100.968 11.1333 105.58 10.1032 110.144 9.085C112.426 8.57592 114.695 8.07283 116.947 7.56975C118.073 7.3182 119.199 7.06666 120.319 6.82111C120.882 6.69533 121.439 6.56956 121.996 6.44978C122.547 6.31802 123.128 6.19824 123.715 6.20423C124.883 6.20423 126.033 6.61748 126.949 7.32419C127.854 8.04289 128.53 9.05505 128.806 10.175C129.297 12.373 129.788 14.5591 130.273 16.7331C131.237 21.0752 132.196 25.3575 133.136 29.5798C135.017 38.0245 136.837 46.2176 138.604 54.1472C142.132 70.0005 145.414 84.7637 148.414 98.2452C154.403 125.208 159.255 147.027 162.609 162.107C163.447 165.874 164.19 169.228 164.83 172.127C165.154 173.576 165.447 174.918 165.717 176.146C165.849 176.763 165.998 177.338 166.088 177.901C166.178 178.464 166.184 179.015 166.094 179.518C165.938 180.53 165.501 181.356 165.022 181.961C164.537 182.566 164.004 182.961 163.555 183.225C163.094 183.471 162.722 183.614 162.471 183.686C162.213 183.752 162.087 183.788 162.087 183.788V183.782Z" fill="#263238"/>
<g opacity="0.3">
<path d="M53.0599 203.456L157.702 179.536L154.39 159.023L148.461 147.53L48.3584 186.854L53.0599 203.456Z" fill="black"/>
</g>
<g opacity="0.3">
<path d="M96.7451 12.5766L100.704 19.1108L101.477 22.5725L98.7874 23.1714L96.7451 12.5766Z" fill="black"/>
</g>
<path d="M9.75342 39.1803L46.0595 202.085L159.859 176.721L153.367 147.596L123.553 13.8163L9.75342 39.1803Z" fill="white"/>
<path d="M9.75317 39.1803C10.5617 39.0007 54.3662 29.1965 123.529 13.7206L123.625 13.6966L123.648 13.7984C133.746 59.0703 146.341 115.566 159.973 176.685V176.697L160.003 176.817L159.883 176.847C119.199 185.908 80.5687 194.514 46.0833 202.199L45.9695 202.222L45.9455 202.109C24.5763 105.911 9.97477 40.1686 9.75317 39.1803C9.97477 40.1745 24.6661 105.893 46.1671 202.061L46.0293 201.977C80.5148 194.287 119.145 185.674 159.829 176.607L159.733 176.757V176.745C146.12 115.62 133.537 59.1242 123.451 13.8463L123.571 13.9242C54.3842 29.2743 10.5617 39.0007 9.75317 39.1803Z" fill="#263238"/>
<path d="M41.7981 19.8063L91.9843 8.62513C94.0245 8.17059 96.0533 9.45507 96.5091 11.5011L99.4057 24.5022L41.8245 37.3309L38.9279 24.3298C38.4734 22.2896 39.7579 20.2608 41.8039 19.805L41.7981 19.8063Z" fill="#263238"/>
<path d="M72.8178 6.30003L58.1624 9.56411L62.6782 21.746L73.7161 19.2845L72.8178 6.30003Z" fill="#263238"/>
<path d="M91.9827 8.61783C91.9947 8.68371 80.7771 11.2411 66.9182 14.3315C53.0594 17.4219 41.8118 19.8714 41.7998 19.8055C41.7878 19.7396 53.0055 17.1823 66.8643 14.0919C80.7172 11.0015 91.9648 8.55195 91.9827 8.62382V8.61783Z" fill="#455A64"/>
<path d="M42.5126 34.3472C42.4467 34.3591 41.8657 32.0114 41.2189 29.1007C40.5721 26.184 40.0989 23.8123 40.1648 23.8003C40.2307 23.7883 40.8116 26.1361 41.4645 29.0468C42.1113 31.9575 42.5844 34.3352 42.5185 34.3472H42.5126Z" fill="#455A64"/>
<path d="M96.6606 20.9674C96.5947 20.9794 96.0617 18.8472 95.4747 16.206C94.8878 13.5588 94.4626 11.4027 94.5285 11.3908C94.5943 11.3788 95.1274 13.5109 95.7143 16.1521C96.3012 18.7993 96.7265 20.9554 96.6606 20.9674Z" fill="#455A64"/>
<path d="M94.3792 23.8063C94.3912 23.8722 82.8741 26.4954 68.6499 29.6696C54.4197 32.8379 42.8787 35.3533 42.8667 35.2874C42.8547 35.2216 54.3718 32.5983 68.596 29.4241C82.8202 26.2558 94.3613 23.7404 94.3792 23.8063Z" fill="#455A64"/>
<path d="M64.0671 71.1981C64.0851 71.264 56.3112 73.0547 46.7166 75.1929C37.116 77.331 29.3242 79.0139 29.3062 78.9421C29.2882 78.8762 37.0561 77.0854 46.6567 74.9473C56.2513 72.8092 64.0491 71.1262 64.0611 71.1981H64.0671Z" fill="#263238"/>
<path d="M121.988 64.676C122.006 64.7419 101.703 69.3235 76.6501 74.9114C51.5856 80.4993 31.2644 84.9671 31.2525 84.9013C31.2345 84.8354 51.5376 80.2537 76.5962 74.6658C101.649 69.084 121.976 64.6101 121.988 64.676Z" fill="#263238"/>
<path d="M123.234 70.2758C123.252 70.3417 102.948 74.9234 77.8959 80.5112C52.8314 86.0991 32.5103 90.567 32.4983 90.5011C32.4803 90.4352 52.7835 85.8535 77.842 80.2657C102.895 74.6838 123.222 70.2099 123.234 70.2758Z" fill="#263238"/>
<path d="M124.485 75.8756C124.503 75.9415 104.2 80.5232 79.1476 86.111C54.0831 91.6989 33.762 96.1668 33.75 96.1009C33.732 96.035 54.0352 91.4533 79.0937 85.8655C104.146 80.2836 124.473 75.8097 124.485 75.8756Z" fill="#263238"/>
<path d="M125.731 81.4695C125.749 81.5354 105.446 86.1171 80.3932 91.7049C55.3287 97.2928 35.0076 101.761 34.9956 101.695C34.9776 101.629 55.2808 97.0473 80.3393 91.4594C105.392 85.8775 125.719 81.4036 125.731 81.4695Z" fill="#263238"/>
<path d="M126.977 87.0693C126.995 87.1352 106.692 91.7169 81.6391 97.3048C56.5746 102.893 36.2534 107.361 36.2415 107.295C36.2235 107.229 56.5267 102.647 81.5852 97.0592C106.638 91.4773 126.965 87.0035 126.977 87.0693Z" fill="#263238"/>
<path d="M53.8369 126.478C53.8369 126.478 53.813 126.412 53.783 126.286C53.7471 126.148 53.7052 125.969 53.6513 125.753C53.5375 125.268 53.3758 124.597 53.1781 123.753C52.7769 122.022 52.2139 119.59 51.5431 116.68L51.6749 116.763C48.818 117.404 45.4462 118.165 41.8587 118.967C41.8347 118.997 42.0383 118.686 41.9545 118.818V118.824V118.836L41.9605 118.86L41.9725 118.902L41.9904 118.985L42.0264 119.153L42.0982 119.489C42.1462 119.71 42.2001 119.932 42.248 120.153C42.3438 120.597 42.4456 121.034 42.5414 121.465C42.7331 122.333 42.9187 123.178 43.1044 124.004C43.4697 125.651 43.8111 127.209 44.1226 128.64L43.9908 128.556C46.9135 127.927 49.3511 127.406 51.0879 127.029C51.9384 126.849 52.6152 126.711 53.1003 126.61C53.3219 126.568 53.4956 126.532 53.6393 126.502C53.7651 126.478 53.8309 126.466 53.8369 126.472C53.8369 126.472 53.783 126.49 53.6692 126.52C53.5375 126.556 53.3638 126.598 53.1542 126.646C52.675 126.759 52.0102 126.915 51.1778 127.113C49.4289 127.514 46.9734 128.083 44.0327 128.76L43.9249 128.784L43.901 128.676C43.5776 127.244 43.2302 125.693 42.8589 124.046C42.6732 123.22 42.4815 122.375 42.2899 121.507C42.1941 121.076 42.0922 120.638 41.9964 120.195C41.9485 119.974 41.8946 119.752 41.8467 119.53L41.7748 119.195L41.7389 119.027L41.7209 118.944L41.7089 118.902V118.878L41.703 118.866V118.86C41.6191 118.991 41.8167 118.674 41.7988 118.71C45.3923 117.913 48.7641 117.171 51.6269 116.536L51.7347 116.512L51.7587 116.62C52.3936 119.566 52.9206 122.034 53.2979 123.789C53.4716 124.627 53.6093 125.298 53.7112 125.777C53.7531 125.987 53.789 126.16 53.813 126.298C53.8369 126.412 53.8429 126.472 53.8369 126.472V126.478Z" fill="#263238"/>
<path d="M126.844 102.269L58.3193 117.536L59.5931 123.253L128.118 107.986L126.844 102.269Z" fill="#E0E0E0"/>
<path d="M57.6338 143.517C57.6338 143.517 57.6098 143.451 57.5799 143.325C57.544 143.188 57.502 143.008 57.4481 142.792C57.3343 142.307 57.1726 141.636 56.975 140.792C56.5737 139.061 56.0108 136.629 55.34 133.719L55.4717 133.803C52.6149 134.443 49.243 135.204 45.6555 136.007C45.6316 136.036 45.8352 135.725 45.7514 135.857V135.863V135.875L45.7574 135.899L45.7693 135.941L45.7873 136.024L45.8232 136.192L45.8951 136.528C45.943 136.749 45.9969 136.971 46.0448 137.192C46.1407 137.636 46.2425 138.073 46.3383 138.504C46.53 139.372 46.7156 140.217 46.9013 141.043C47.2666 142.69 47.608 144.248 47.9194 145.679L47.7877 145.595C50.7104 144.966 53.1479 144.445 54.8848 144.068C55.7353 143.888 56.412 143.75 56.8971 143.649C57.1187 143.607 57.2924 143.571 57.4362 143.541C57.5619 143.517 57.6278 143.505 57.6338 143.511C57.6338 143.511 57.5799 143.529 57.4661 143.559C57.3343 143.595 57.1607 143.637 56.951 143.685C56.4719 143.798 55.8071 143.954 54.9746 144.152C53.2258 144.553 50.7703 145.122 47.8296 145.799L47.7218 145.823L47.6978 145.715C47.3744 144.284 47.0271 142.732 46.6557 141.085C46.4701 140.259 46.2784 139.414 46.0868 138.546C45.9909 138.115 45.8891 137.678 45.7933 137.234C45.7454 137.013 45.6915 136.791 45.6436 136.57L45.5717 136.234L45.5358 136.066L45.5178 135.983L45.5058 135.941V135.917L45.4998 135.905V135.899C45.416 136.03 45.6136 135.713 45.5957 135.749C49.1891 134.952 52.561 134.21 55.4238 133.575L55.5316 133.551L55.5556 133.659C56.1904 136.605 56.7175 139.073 57.0948 140.828C57.2685 141.666 57.4062 142.337 57.508 142.816C57.55 143.026 57.5859 143.199 57.6099 143.337C57.6338 143.451 57.6398 143.511 57.6338 143.511V143.517Z" fill="#263238"/>
<path d="M130.639 119.308L62.114 134.575L63.3878 140.292L131.912 125.025L130.639 119.308Z" fill="#E0E0E0"/>
<path d="M61.4311 160.556C61.4311 160.556 61.4071 160.49 61.3772 160.364C61.3412 160.227 61.2993 160.047 61.2454 159.831C61.1316 159.346 60.9699 158.675 60.7723 157.831C60.371 156.1 59.808 153.669 59.1372 150.758L59.269 150.842C56.4122 151.482 53.0403 152.243 49.4528 153.046C49.4288 153.076 49.6325 152.764 49.5486 152.896V152.902V152.914L49.5546 152.938L49.5666 152.98L49.5846 153.064L49.6205 153.231L49.6924 153.567C49.7403 153.788 49.7942 154.01 49.8421 154.231C49.9379 154.675 50.0397 155.112 50.1356 155.543C50.3272 156.412 50.5129 157.256 50.6985 158.082C51.0639 159.73 51.4052 161.287 51.7167 162.718L51.5849 162.634C54.5076 162.005 56.9452 161.484 58.682 161.107C59.5325 160.927 60.2093 160.79 60.6944 160.688C60.916 160.646 61.0897 160.61 61.2334 160.58C61.3592 160.556 61.4251 160.544 61.4251 160.55C61.4251 160.55 61.3712 160.568 61.2574 160.598C61.1256 160.634 60.9519 160.676 60.7423 160.724C60.2632 160.837 59.5984 160.993 58.7659 161.191C57.0171 161.592 54.5615 162.161 51.6209 162.838L51.5131 162.862L51.4891 162.754C51.1657 161.323 50.8183 159.771 50.447 158.124C50.2613 157.298 50.0697 156.453 49.878 155.585C49.7822 155.154 49.6864 154.717 49.5846 154.273C49.5366 154.052 49.4827 153.83 49.4348 153.609L49.363 153.273L49.327 153.106L49.3091 153.022L49.2971 152.98V152.956L49.2911 152.944V152.938C49.2072 153.07 49.4049 152.752 49.3869 152.788C52.9804 151.992 56.3523 151.249 59.2151 150.614L59.3229 150.59L59.3468 150.698C59.9817 153.645 60.5087 156.112 60.886 157.867C61.0597 158.705 61.1975 159.376 61.2993 159.855C61.3412 160.065 61.3772 160.239 61.4011 160.376C61.4251 160.49 61.4311 160.55 61.4251 160.55L61.4311 160.556Z" fill="#263238"/>
<path d="M134.432 136.347L65.9077 151.614L67.1815 157.331L135.706 142.065L134.432 136.347Z" fill="#E0E0E0"/>
<path d="M44.3982 122.956L45.4283 121.339L48.4888 123.04L52.4236 117.099L53.9509 118.147L48.8661 125.633L44.3982 122.956Z" fill="#4B9AC2"/>
<path d="M48.0701 139.426L49.1002 137.809L52.1606 139.51L56.0955 133.569L57.6227 134.617L52.538 142.103L48.0701 139.426Z" fill="#4B9AC2"/>
<path d="M51.8308 156.316L52.8609 154.699L55.9214 156.394L59.8562 150.458L61.3835 151.506L56.2987 158.993L51.8308 156.316Z" fill="#4B9AC2"/>
<path d="M83.1964 177.505C83.2143 177.571 77.4288 178.919 70.2778 180.512C63.1268 182.105 57.3173 183.345 57.2994 183.273C57.2814 183.207 63.0669 181.859 70.2239 180.266C77.3749 178.673 83.1844 177.433 83.1964 177.505Z" fill="#263238"/>
<path d="M96.1021 174.421C96.1201 174.487 93.9879 175.02 91.3467 175.607C88.7055 176.194 86.5554 176.619 86.5375 176.547C86.5195 176.481 88.6516 175.948 91.2928 175.361C93.934 174.774 96.0841 174.349 96.1021 174.421Z" fill="#263238"/>
<path d="M138.829 160.975C138.847 161.041 133.636 162.263 127.204 163.694C120.765 165.132 115.537 166.24 115.525 166.168C115.507 166.102 120.712 164.88 127.15 163.449C133.582 162.017 138.817 160.909 138.829 160.975Z" fill="#263238"/>
<path d="M133.265 176.739C133.265 176.739 133.319 176.577 133.379 176.259C133.451 175.948 133.451 175.463 133.307 174.876C133.157 174.283 132.846 173.606 132.481 172.816C132.127 172.031 131.666 171.097 131.66 169.959C131.678 168.845 132.169 167.605 133.175 166.737C134.17 165.85 135.739 165.539 137.158 165.994C137.865 166.222 138.548 166.623 139.051 167.24C139.29 167.551 139.488 167.929 139.5 168.36C139.536 168.797 139.2 169.234 138.799 169.372C138.398 169.522 138.015 169.57 137.619 169.665C137.224 169.749 136.829 169.827 136.427 169.911C135.625 170.067 134.81 170.216 133.978 170.324C132.313 170.546 130.642 170.576 129.079 170.354C128.312 170.27 127.504 170.258 126.929 170.708C126.354 171.145 126.06 171.857 125.635 172.456C125.425 172.756 125.156 173.049 124.803 173.205C124.455 173.367 124.048 173.361 123.707 173.253C123.018 173.019 122.509 172.558 121.958 172.247C121.688 172.085 121.407 171.959 121.113 171.929C120.826 171.899 120.538 171.971 120.311 172.133C119.85 172.462 119.604 173.007 119.299 173.463C118.694 174.433 117.652 174.888 116.771 174.924C115.867 174.966 115.136 174.582 114.675 174.181C114.202 173.768 113.968 173.331 113.848 173.031C113.729 172.726 113.711 172.558 113.711 172.558C113.723 172.558 113.759 172.72 113.89 173.013C114.028 173.301 114.268 173.72 114.735 174.109C115.196 174.493 115.903 174.84 116.759 174.786C117.604 174.744 118.58 174.295 119.149 173.373C119.448 172.93 119.676 172.367 120.203 171.983C120.46 171.798 120.802 171.708 121.137 171.738C121.473 171.768 121.778 171.911 122.066 172.079C122.634 172.402 123.15 172.852 123.772 173.055C124.084 173.151 124.419 173.151 124.713 173.013C125.012 172.882 125.252 172.63 125.449 172.337C125.863 171.768 126.144 171.031 126.791 170.528C127.114 170.276 127.516 170.151 127.911 170.109C128.312 170.067 128.713 170.091 129.109 170.127C130.672 170.348 132.295 170.312 133.954 170.097C134.78 169.989 135.589 169.845 136.392 169.689C136.793 169.606 137.188 169.528 137.577 169.444C137.967 169.354 138.374 169.3 138.715 169.168C139.057 169.043 139.29 168.743 139.266 168.39C139.26 168.042 139.093 167.695 138.871 167.414C138.41 166.851 137.763 166.461 137.092 166.24C135.745 165.802 134.265 166.09 133.319 166.922C132.355 167.743 131.87 168.923 131.846 169.989C131.846 171.067 132.271 171.995 132.618 172.786C132.972 173.576 133.277 174.277 133.415 174.882C133.547 175.487 133.529 175.984 133.439 176.295C133.361 176.613 133.277 176.763 133.277 176.763L133.265 176.739Z" fill="#263238"/>
<path d="M145.645 169.073C145.645 169.073 145.537 169.114 145.334 169.168C145.1 169.222 144.801 169.294 144.429 169.384C143.609 169.576 142.477 169.839 141.087 170.157C138.267 170.809 134.374 171.732 130.097 172.816C125.815 173.9 121.952 174.948 119.161 175.714C117.79 176.092 116.664 176.403 115.855 176.625C115.484 176.721 115.184 176.804 114.957 176.864C114.747 176.918 114.639 176.942 114.639 176.93C114.639 176.924 114.741 176.882 114.945 176.816C115.172 176.745 115.466 176.649 115.831 176.529C116.604 176.283 117.724 175.948 119.113 175.541C121.892 174.726 125.749 173.654 130.031 172.57C134.314 171.486 138.213 170.588 141.045 169.977C142.459 169.671 143.609 169.432 144.405 169.282C144.783 169.21 145.088 169.156 145.322 169.108C145.531 169.073 145.645 169.055 145.645 169.067V169.073Z" fill="#263238"/>
<path d="M96.5187 37.6563L50.0037 48.0196L51.9508 56.7591L98.4658 46.3958L96.5187 37.6563Z" fill="#E0E0E0"/>
<path d="M140.523 179.476L155.556 258.873L169.289 233.497L195.318 248.776L167.684 171.462L140.523 179.476Z" fill="#DB4537"/>
<g opacity="0.3">
<path d="M145.577 206.181C148.356 206.756 151.596 205.774 153.567 203.732C154.938 202.312 155.849 200.39 157.573 199.443C159.125 198.593 161.035 198.713 162.736 199.186C164.437 199.659 166.048 200.443 167.755 200.893C171.109 201.761 174.81 201.216 177.769 199.407L173.433 187.369L153.309 184.854L143.715 196.383L145.571 206.187L145.577 206.181Z" fill="black"/>
</g>
<path d="M168.306 230.341C168.223 230.365 165.983 222.118 163.311 211.925C160.634 201.731 158.532 193.448 158.616 193.43C158.7 193.406 160.934 201.653 163.617 211.847C166.294 222.04 168.396 230.317 168.312 230.341H168.306Z" fill="#263238"/>
<path d="M142.726 183.608L127.694 263L113.961 237.624L87.9319 252.902L115.566 175.595L142.726 183.608Z" fill="#DB4537"/>
<g opacity="0.3">
<path d="M107.302 198.719C107.302 198.719 111.578 202.234 116.675 200.617C121.771 198.994 124.94 198.653 127.701 200.617C130.462 202.582 137.93 208.978 137.93 208.978L139.661 199.821L129.629 186.046L119.154 188.16L111.692 188.902L108.919 194.149L107.296 198.719H107.302Z" fill="black"/>
</g>
<path d="M230.833 111.936C230.833 117.632 223.55 122.537 222.484 127.921C221.388 133.467 226.215 140.78 224.101 145.882C221.945 151.075 213.339 152.824 210.254 157.436C207.14 162.089 208.799 170.701 204.858 174.642C200.917 178.583 192.299 176.924 187.651 180.038C183.034 183.129 181.291 191.735 176.098 193.885C170.996 196 163.683 191.172 158.137 192.268C152.753 193.334 147.848 200.617 142.152 200.617C136.456 200.617 131.551 193.334 126.167 192.268C120.621 191.172 113.308 196 108.206 193.885C103.013 191.729 101.264 183.123 96.6526 180.038C91.999 176.924 83.3867 178.583 79.4458 174.642C75.505 170.701 77.164 162.083 74.0496 157.436C70.9592 152.818 62.3528 151.075 60.2027 145.882C58.0886 140.78 62.9158 133.467 61.8198 127.921C60.7537 122.537 53.4709 117.632 53.4709 111.936C53.4709 106.24 60.7537 101.335 61.8198 95.9511C62.9158 90.4052 58.0886 83.0924 60.2027 77.9897C62.3588 72.7971 70.9652 71.0483 74.0496 66.4366C77.164 61.7831 75.505 53.1707 79.4458 49.2299C83.3867 45.289 92.005 46.948 96.6526 43.8337C101.27 40.7433 103.013 32.1369 108.206 29.9868C113.308 27.8726 120.621 32.6999 126.167 31.6039C131.551 30.5378 136.456 23.255 142.152 23.255C147.848 23.255 152.753 30.5378 158.137 31.6039C163.683 32.6999 170.996 27.8726 176.098 29.9868C181.291 32.1429 183.04 40.7493 187.651 43.8337C192.305 46.948 200.917 45.289 204.858 49.2299C208.799 53.1707 207.14 61.7891 210.254 66.4366C213.345 71.0543 221.951 72.7971 224.101 77.9897C226.215 83.0924 221.388 90.4052 222.484 95.9511C223.55 101.335 230.833 106.24 230.833 111.936Z" fill="#DB4537"/>
<path d="M121.387 62.2262C121.387 62.2262 121.322 62.1484 121.226 61.9807C121.112 61.783 120.98 61.5435 120.819 61.25C120.465 60.6152 119.986 59.6809 119.405 58.519C118.249 56.1952 116.752 52.9251 115.309 49.2358C113.871 45.5405 112.757 42.1207 112.032 39.6292C111.667 38.3835 111.398 37.3654 111.224 36.6646C111.146 36.3412 111.08 36.0717 111.032 35.8501C110.99 35.6644 110.972 35.5626 110.984 35.5626C110.996 35.5626 111.032 35.6525 111.092 35.8381C111.158 36.0537 111.242 36.3173 111.344 36.6347C111.571 37.3773 111.877 38.3655 112.248 39.5694C113.027 42.0429 114.165 45.4387 115.602 49.128C117.039 52.8113 118.501 56.0874 119.603 58.4291C120.148 59.5671 120.591 60.5014 120.926 61.2021C121.07 61.5016 121.184 61.7531 121.28 61.9567C121.358 62.1304 121.393 62.2262 121.387 62.2322V62.2262Z" fill="#263238"/>
<path d="M129.281 59.2258C129.281 59.2258 129.179 58.9982 129.053 58.567C128.927 58.1357 128.754 57.5129 128.556 56.7343C128.161 55.1771 127.669 53.015 127.226 50.6074C126.783 48.1998 126.472 46.0018 126.292 44.4086C126.202 43.6121 126.136 42.9653 126.106 42.5161C126.07 42.0669 126.064 41.8213 126.088 41.8154C126.112 41.8094 126.16 42.0549 126.232 42.4981C126.31 43.0072 126.406 43.636 126.52 44.3727C126.759 45.9538 127.101 48.1399 127.544 50.5475C127.987 52.9492 128.442 55.1172 128.777 56.6804C128.933 57.4111 129.071 58.0339 129.179 58.537C129.269 58.9742 129.311 59.2198 129.293 59.2258H129.281Z" fill="#263238"/>
<path d="M143.206 57.8423C143.122 57.8423 142.9 51.1284 142.708 42.8395C142.523 34.5505 142.439 27.8307 142.523 27.8247C142.607 27.8247 142.828 34.5385 143.02 42.8275C143.206 51.1165 143.289 57.8363 143.206 57.8363V57.8423Z" fill="#263238"/>
<path d="M157.221 44.0373C157.305 44.0613 156.334 47.4212 155.059 51.5417C153.783 55.6622 152.681 58.9802 152.603 58.9503C152.519 58.9263 153.49 55.5664 154.765 51.4459C156.041 47.3254 157.143 44.0134 157.221 44.0373Z" fill="#263238"/>
<path d="M162.934 61.3938C162.934 61.3938 162.952 61.292 163.012 61.1123C163.084 60.8967 163.174 60.6392 163.287 60.3217C163.527 59.639 163.898 58.6568 164.365 57.441C165.3 55.0214 166.647 51.6974 168.181 48.05C169.714 44.3966 171.139 41.1086 172.187 38.7369C172.702 37.587 173.128 36.6407 173.451 35.934C173.595 35.6345 173.715 35.383 173.81 35.1794C173.894 35.0057 173.948 34.9218 173.954 34.9218C173.96 34.9218 173.936 35.0236 173.864 35.2033C173.78 35.4129 173.679 35.6705 173.559 35.9819C173.265 36.7006 172.87 37.6589 172.391 38.8208C171.373 41.2523 169.995 44.5404 168.468 48.1698C166.953 51.7992 165.587 55.0872 164.569 57.5248C164.09 58.6927 163.695 59.651 163.401 60.3637C163.269 60.6691 163.162 60.9206 163.072 61.1303C162.994 61.304 162.946 61.3938 162.94 61.3938H162.934Z" fill="#263238"/>
<path d="M170.426 65.2987C170.426 65.2987 170.528 65.0712 170.768 64.6879C171.001 64.3045 171.361 63.7655 171.81 63.1007C172.708 61.7711 174.002 59.9684 175.505 58.0399C177.014 56.1114 178.446 54.4165 179.518 53.2187C180.051 52.6198 180.494 52.1406 180.805 51.8232C181.117 51.4998 181.297 51.3321 181.315 51.3441C181.332 51.356 181.183 51.5597 180.895 51.907C180.566 52.3023 180.165 52.7934 179.685 53.3684C178.661 54.5962 177.254 56.3091 175.751 58.2376C174.247 60.1661 172.93 61.9448 171.989 63.2385C171.546 63.8434 171.169 64.3525 170.869 64.7717C170.6 65.131 170.444 65.3227 170.426 65.3107V65.2987Z" fill="#263238"/>
<path d="M181.315 74.2285C181.255 74.1626 185.993 69.6588 191.898 64.1728C197.803 58.6807 202.636 54.2787 202.696 54.3446C202.756 54.4105 198.019 58.9083 192.113 64.4064C186.208 69.8984 181.375 74.3004 181.321 74.2345L181.315 74.2285Z" fill="#263238"/>
<path d="M200.337 76.0851C200.355 76.127 199.654 76.4804 198.534 77.0673C197.408 77.6542 195.881 78.4987 194.192 79.451C192.503 80.3973 190.946 81.2178 189.796 81.7568C189.221 82.0263 188.748 82.2359 188.418 82.3677C188.089 82.4995 187.903 82.5653 187.891 82.5474C187.873 82.5055 188.574 82.1521 189.694 81.5652C190.82 80.9782 192.347 80.1338 194.036 79.1815C195.725 78.2352 197.282 77.4147 198.432 76.8757C199.007 76.6062 199.48 76.3965 199.81 76.2648C200.139 76.133 200.325 76.0671 200.337 76.0851Z" fill="#263238"/>
<path d="M217.944 83.3919C217.974 83.4757 212.332 85.53 205.349 87.9915C198.359 90.4531 192.676 92.3816 192.646 92.2977C192.616 92.2139 198.258 90.1596 205.247 87.6981C212.23 85.2365 217.92 83.3081 217.95 83.3919H217.944Z" fill="#263238"/>
<path d="M223.55 115.416C223.544 115.5 217.411 114.991 209.858 114.272C202.306 113.553 196.185 112.9 196.197 112.816C196.203 112.733 202.336 113.242 209.888 113.96C217.441 114.679 223.556 115.332 223.55 115.416Z" fill="#263238"/>
<path d="M219.047 144.134C219.011 144.212 213.279 141.582 206.248 138.258C199.217 134.934 193.545 132.179 193.581 132.101C193.617 132.024 199.348 134.653 206.38 137.977C213.411 141.301 219.082 144.056 219.047 144.134Z" fill="#263238"/>
<path d="M200.193 171.462C200.127 171.516 195.994 166.725 190.964 160.753C185.927 154.782 181.902 149.901 181.968 149.841C182.034 149.787 186.166 154.579 191.203 160.55C196.234 166.521 200.265 171.402 200.199 171.456L200.193 171.462Z" fill="#263238"/>
<path d="M184.454 175.073C184.454 175.073 184.256 174.846 183.956 174.403C183.651 173.96 183.22 173.307 182.705 172.498C181.663 170.875 180.267 168.611 178.8 166.06C177.332 163.514 176.063 161.167 175.182 159.454C174.739 158.597 174.392 157.903 174.158 157.412C173.925 156.926 173.805 156.651 173.823 156.645C173.841 156.639 173.996 156.89 174.266 157.358C174.559 157.879 174.931 158.549 175.374 159.352C176.308 161.035 177.602 163.359 179.069 165.904C180.537 168.45 181.902 170.731 182.89 172.378C183.357 173.163 183.753 173.822 184.058 174.337C184.334 174.804 184.471 175.062 184.454 175.073Z" fill="#263238"/>
<path d="M174.679 188.819C174.679 188.819 174.613 188.741 174.523 188.573C174.416 188.375 174.29 188.13 174.134 187.842C173.799 187.208 173.332 186.273 172.781 185.105C171.679 182.776 170.259 179.505 168.912 175.81C167.564 172.109 166.546 168.695 165.893 166.198C165.564 164.952 165.318 163.94 165.168 163.233C165.103 162.91 165.043 162.64 164.995 162.418C164.959 162.233 164.947 162.131 164.959 162.131C164.971 162.131 165.001 162.221 165.061 162.407C165.121 162.622 165.198 162.886 165.288 163.203C165.498 163.946 165.773 164.934 166.109 166.138C166.815 168.611 167.864 172.007 169.205 175.702C170.553 179.392 171.93 182.668 172.984 185.015C173.499 186.153 173.925 187.094 174.242 187.788C174.38 188.088 174.488 188.339 174.583 188.543C174.655 188.717 174.691 188.813 174.685 188.819H174.679Z" fill="#263238"/>
<path d="M154.873 179.182C154.825 179.182 154.753 178.385 154.615 177.098C154.478 175.81 154.262 174.031 153.933 172.085C153.603 170.138 153.232 168.384 152.944 167.12C152.657 165.856 152.465 165.078 152.513 165.066C152.531 165.066 152.609 165.245 152.723 165.593C152.837 165.94 152.992 166.443 153.16 167.066C153.501 168.318 153.915 170.073 154.244 172.031C154.573 173.989 154.753 175.78 154.837 177.074C154.879 177.721 154.903 178.248 154.903 178.613C154.903 178.978 154.903 179.176 154.879 179.182H154.873Z" fill="#263238"/>
<path d="M141.924 196.425C141.924 196.425 141.906 196.317 141.9 196.119C141.9 195.88 141.894 195.592 141.888 195.239C141.882 194.472 141.888 193.37 141.912 191.999C141.96 189.268 142.085 185.489 142.301 181.326C142.517 177.158 142.786 173.391 143.008 170.665C143.121 169.306 143.217 168.204 143.295 167.443C143.337 167.09 143.367 166.803 143.391 166.569C143.415 166.371 143.439 166.263 143.445 166.263C143.457 166.263 143.457 166.371 143.451 166.569C143.439 166.808 143.427 167.096 143.409 167.449C143.361 168.258 143.295 169.354 143.217 170.677C143.056 173.45 142.84 177.194 142.606 181.338C142.385 185.501 142.229 189.274 142.127 192.005C142.079 193.334 142.037 194.43 142.007 195.239C141.989 195.592 141.977 195.88 141.966 196.119C141.954 196.323 141.942 196.425 141.93 196.425H141.924Z" fill="#263238"/>
<path d="M131.389 166.257C131.431 166.263 131.365 166.85 131.209 167.785C131.054 168.719 130.802 170.007 130.473 171.42C130.143 172.834 129.796 174.097 129.521 175.002C129.245 175.912 129.041 176.463 128.999 176.451C128.958 176.439 129.083 175.864 129.305 174.942C129.55 173.912 129.844 172.696 130.167 171.342C130.479 169.989 130.754 168.767 130.994 167.737C131.203 166.814 131.347 166.246 131.389 166.251V166.257Z" fill="#263238"/>
<path d="M112.356 157.112C112.421 157.166 111.254 158.825 109.732 160.825C108.217 162.826 106.929 164.401 106.863 164.353C106.798 164.299 107.965 162.64 109.487 160.64C111.002 158.639 112.29 157.064 112.356 157.112Z" fill="#263238"/>
<path d="M102.366 150.398C102.431 150.452 98.7122 154.818 94.0647 160.143C89.4171 165.473 85.596 169.743 85.5302 169.683C85.4643 169.629 89.1835 165.263 93.8311 159.933C98.4787 154.609 102.3 150.332 102.366 150.392V150.398Z" fill="#263238"/>
<path d="M97.3704 142.972C97.4243 143.038 95.3581 144.834 92.7528 146.978C90.1475 149.129 87.9915 150.811 87.9376 150.746C87.8837 150.68 89.9499 148.883 92.5552 146.739C95.1604 144.595 97.3165 142.906 97.3704 142.972Z" fill="#263238"/>
<path d="M91.5196 131.766C91.5556 131.844 86.381 134.413 79.9606 137.51C73.5343 140.606 68.2998 143.05 68.2639 142.972C68.2279 142.894 73.4025 140.325 79.8289 137.228C86.2492 134.132 91.4897 131.688 91.5256 131.766H91.5196Z" fill="#263238"/>
<path d="M89.1713 126.172C89.1713 126.172 88.9856 126.25 88.6323 126.334C88.2849 126.418 87.7698 126.526 87.141 126.639C85.8773 126.873 84.1165 127.142 82.164 127.34C80.2116 127.538 78.4328 127.622 77.1451 127.64C76.5043 127.652 75.9832 127.646 75.6239 127.64C75.2645 127.628 75.0669 127.61 75.0669 127.592C75.0669 127.544 75.8575 127.502 77.1391 127.424C78.4208 127.346 80.1876 127.226 82.1341 127.029C84.0805 126.831 85.8354 126.603 87.1051 126.424C88.3747 126.244 89.1593 126.13 89.1713 126.178V126.172Z" fill="#263238"/>
<path d="M87.2733 113.272C87.2733 113.272 86.896 113.284 86.2252 113.248C85.5005 113.212 84.5422 113.164 83.3743 113.104C80.9667 112.99 77.6427 112.876 73.9714 112.894C70.3001 112.918 66.9761 113.062 64.5685 113.206C63.4066 113.278 62.4483 113.338 61.7236 113.385C61.0529 113.427 60.6755 113.439 60.6755 113.421C60.6755 113.397 61.0409 113.344 61.7117 113.266C62.3824 113.182 63.3527 113.086 64.5565 112.99C66.9581 112.793 70.2881 112.613 73.9714 112.589C77.6547 112.571 80.9847 112.715 83.3863 112.888C84.5901 112.972 85.5604 113.062 86.2312 113.134C86.9019 113.206 87.2733 113.254 87.2673 113.278L87.2733 113.272Z" fill="#263238"/>
<path d="M88.4529 101.94C88.4289 102.024 84.554 101.012 79.7926 99.6883C75.0312 98.3587 71.1922 97.2148 71.2162 97.131C71.2401 97.0471 75.1151 98.0593 79.8765 99.3829C84.6378 100.712 88.4769 101.856 88.4529 101.94Z" fill="#263238"/>
<path d="M90.9566 92.4354C90.9566 92.4354 90.8548 92.4235 90.6751 92.3696C90.4595 92.3037 90.196 92.2258 89.8845 92.13C89.1958 91.9204 88.2136 91.585 87.0038 91.1418C84.5901 90.2614 81.2961 88.9198 77.7745 87.189C74.2529 85.4521 71.1805 83.6614 69.0124 82.2779C67.9284 81.5891 67.06 81.0142 66.473 80.5949C66.2035 80.4033 65.9819 80.2476 65.8022 80.1158C65.6525 80.002 65.5747 79.9421 65.5806 79.9301C65.5866 79.9182 65.6765 79.9661 65.8382 80.0619C66.0298 80.1817 66.2634 80.3194 66.5449 80.4931C67.1498 80.8764 68.0362 81.4214 69.1322 82.0862C71.3242 83.4158 74.4086 85.1706 77.9183 86.9015C81.4279 88.6264 84.698 89.9979 87.0876 90.9262C88.2854 91.3933 89.2557 91.7587 89.9265 92.0042C90.2319 92.124 90.4894 92.2198 90.6991 92.2977C90.8727 92.3696 90.9626 92.4115 90.9626 92.4235L90.9566 92.4354Z" fill="#263238"/>
<path d="M96.5978 82.8828C96.5499 82.9547 93.5134 80.9064 89.8241 78.3071C86.1348 75.7078 83.1822 73.5457 83.2301 73.4739C83.278 73.402 86.3085 75.4503 90.0038 78.0496C93.6931 80.6488 96.6457 82.8109 96.5978 82.8828Z" fill="#263238"/>
<path d="M84.6804 53.7696C84.6804 53.7696 84.7643 53.8175 84.908 53.9373C85.0757 54.081 85.2734 54.2547 85.5189 54.4584C86.0759 54.9555 86.8245 55.6143 87.7229 56.4108C89.6155 58.0998 92.1609 60.3696 94.9758 62.8851C97.8026 65.3825 100.36 67.6464 102.259 69.3294C103.157 70.1319 103.906 70.7907 104.463 71.2878C104.696 71.5034 104.888 71.6831 105.049 71.8328C105.181 71.9586 105.247 72.0305 105.241 72.0365C105.235 72.0424 105.151 71.9885 105.008 71.8807C104.834 71.743 104.63 71.5813 104.379 71.3836C103.84 70.9464 103.061 70.2996 102.115 69.4971C100.21 67.892 97.611 65.6461 94.7661 63.1246C91.9273 60.6032 89.3879 58.2794 87.5672 56.5845C86.6569 55.734 85.9262 55.0393 85.4291 54.5542C85.2015 54.3326 85.0158 54.1469 84.8601 53.9912C84.7343 53.8594 84.6685 53.7876 84.6744 53.7816L84.6804 53.7696Z" fill="#263238"/>
<path d="M103.366 54.3146C103.366 54.3146 103.527 54.4524 103.773 54.7279C104.019 55.0094 104.366 55.4226 104.779 55.9437C105.612 56.9858 106.72 58.4531 107.87 60.1301C109.019 61.807 109.984 63.3762 110.654 64.5321C110.99 65.107 111.247 65.5802 111.421 65.9096C111.595 66.239 111.679 66.4306 111.661 66.4366C111.619 66.4606 111.182 65.7659 110.469 64.6399C109.756 63.5199 108.762 61.9747 107.618 60.3038C106.474 58.6328 105.396 57.1475 104.611 56.0754C103.827 55.0034 103.336 54.3446 103.372 54.3146H103.366Z" fill="#263238"/>
<g opacity="0.2">
<path d="M79.427 49.2239L105.48 72.0365L111.954 66.8559L96.8374 43.6899C96.8374 43.6899 95.6815 44.5404 92.669 45.4028C89.7523 46.2353 81.1639 46.4569 79.427 49.2299V49.2239Z" fill="black"/>
</g>
<g opacity="0.2">
<path d="M108.427 29.9269L121.148 61.7712L129.276 59.2258L126.569 31.6039C126.569 31.6039 125.167 31.9333 122.065 31.538C119.058 31.1547 111.751 28.2979 108.427 29.9269Z" fill="black"/>
</g>
<g opacity="0.3">
<path d="M142.355 23.255L143.205 57.8363L150.824 58.2016L158.537 31.6578C158.388 31.6458 156.399 31.2984 154.052 29.8011C151.41 28.1122 146.038 22.9795 142.349 23.255H142.355Z" fill="black"/>
</g>
<g opacity="0.2">
<path d="M175.583 29.7892L162.939 61.6693L169.821 64.9573L187.219 43.4803C187.088 43.4085 185.441 42.0369 183.913 39.5934C182.254 36.9342 179.428 30.8492 175.577 29.7832L175.583 29.7892Z" fill="black"/>
</g>
<g opacity="0.2">
<path d="M205.271 49.6851L181.721 74.2285L186.968 81.3017L209.978 65.9455C209.978 65.9455 209.014 64.4123 208.463 61.4657C207.912 58.4831 207.828 53.0509 205.271 49.691V49.6851Z" fill="black"/>
</g>
<g opacity="0.2">
<path d="M223.86 77.3908L192.148 90.4411L194.777 98.5444L222.369 95.5499C222.369 95.5499 222.195 94.6994 222.561 91.5851C222.914 88.5725 226.076 81.8407 223.86 77.3848V77.3908Z" fill="black"/>
</g>
<g opacity="0.2">
<path d="M230.88 111.936L196.311 113.146L196.024 120.77L222.4 128.484C222.412 128.334 222.645 126.849 223.448 125.334C225.388 121.662 230.886 116.488 230.886 111.93L230.88 111.936Z" fill="black"/>
</g>
<g opacity="0.2">
<path d="M224.513 144.631L192.681 132.221L189.459 139.139L211.116 156.315C211.182 156.184 212.445 155.01 214.877 153.465C217.518 151.782 223.783 149.057 224.513 144.631Z" fill="black"/>
</g>
<g opacity="0.2">
<path d="M177.692 144.134L169.816 150.746C170.415 151.369 180.914 169.216 187.382 180.248C187.472 180.182 187.556 180.104 187.646 180.044C191.91 177.194 199.486 178.338 203.762 175.511L177.692 144.128V144.134Z" fill="black"/>
<path d="M163.216 156.645L151.453 160.658L157.023 192.592C157.388 192.466 157.76 192.358 158.131 192.286C163.677 191.19 170.99 196.017 176.092 193.903C176.793 193.61 177.428 193.197 178.021 192.699L163.216 156.651V156.645Z" fill="black"/>
<path d="M141.732 200.611L143.613 158.891L133.443 156.316L125.873 192.238C125.969 192.256 126.059 192.268 126.155 192.286C131.407 193.328 136.21 200.282 141.732 200.617V200.611Z" fill="black"/>
<path d="M116.158 151.812C116.158 151.812 102.719 169.815 95.6934 179.511C96.0228 179.673 96.3402 179.853 96.6396 180.056C101.257 183.147 103 191.753 108.193 193.903C108.432 193.999 108.678 194.083 108.923 194.149L127.699 158.609L116.164 151.812H116.158Z" fill="black"/>
<path d="M102.366 137.318L73.7021 157.022C73.81 157.166 73.9297 157.304 74.0316 157.447C77.1459 162.101 75.4869 170.713 79.4278 174.654C79.7931 175.02 80.2063 175.319 80.6376 175.595C90.7652 164.179 108.948 143.684 109.607 142.972L102.366 137.312V137.318Z" fill="black"/>
<path d="M95.7961 123.25L61.9036 128.724C62.4426 134.162 58.1604 141.025 60.1728 145.888C60.2985 146.188 60.4483 146.469 60.61 146.745C72.4685 140.84 97.2515 128.556 98.2816 128.49L95.7901 123.25H95.7961Z" fill="black"/>
<path d="M93.9453 104.372L61.9094 95.1245C61.8855 95.406 61.8495 95.6815 61.7956 95.951C60.7296 101.335 53.4468 106.24 53.4468 111.936C53.4468 112.319 53.4827 112.697 53.5426 113.074H92.6456L93.9453 104.372Z" fill="black"/>
<path d="M60.3108 77.7321C72.2831 84.1465 95.6946 97.1249 95.6946 97.1249L101.456 86.1828L74.3912 65.8078C74.2774 66.0174 74.1637 66.233 74.0319 66.4306C70.9954 70.9704 62.6406 72.7372 60.3108 77.7321Z" fill="black"/>
</g>
<path d="M230.833 111.936C230.833 111.936 230.815 111.81 230.797 111.559C230.767 111.307 230.779 110.924 230.641 110.445C230.456 109.469 229.905 108.061 228.845 106.432C227.815 104.779 226.257 102.928 224.634 100.587C223.844 99.4068 223.017 98.0773 222.58 96.4841C222.143 94.885 222.227 93.0823 222.568 91.2676C222.897 89.4409 223.442 87.5603 223.922 85.566C224.359 83.5835 224.838 81.4155 224.395 79.2115C224.161 78.1215 223.64 77.0853 222.909 76.181C222.167 75.2826 221.232 74.528 220.244 73.8153C218.256 72.4018 215.974 71.2759 213.782 69.8026C212.692 69.0659 211.614 68.2394 210.728 67.1913C209.829 66.1432 209.248 64.8376 208.853 63.484C208.08 60.759 207.913 57.8483 207.326 54.9315C207.026 53.4822 206.625 52.0089 205.852 50.7032C205.098 49.3856 203.87 48.3675 202.439 47.7506C201.013 47.1157 199.444 46.7923 197.857 46.5288C196.27 46.2653 194.641 46.0796 193.012 45.7921C191.383 45.4987 189.718 45.1154 188.208 44.2829C186.693 43.4564 185.507 42.1268 184.519 40.7074C183.525 39.276 182.668 37.7427 181.758 36.2335C180.848 34.7242 179.889 33.209 178.644 31.9153C177.404 30.6396 175.745 29.7173 173.918 29.5975C172.098 29.4598 170.259 29.8071 168.444 30.2384C166.624 30.6756 164.803 31.2086 162.91 31.562C161.036 31.9273 159.023 32.0591 157.125 31.4542C155.256 30.8073 153.609 29.6694 152.016 28.5015C150.423 27.3276 148.866 26.0759 147.153 25.0398C145.452 24.0336 143.511 23.2011 141.493 23.4227L141.116 23.4527C140.99 23.4766 140.87 23.5066 140.75 23.5305C140.505 23.5904 140.259 23.6323 140.014 23.7042C139.541 23.8779 139.05 24.0216 138.6 24.2552C137.672 24.6685 136.804 25.2255 135.947 25.7944C134.24 26.9563 132.635 28.2919 130.886 29.4777C130.024 30.0826 129.096 30.6157 128.131 31.0708C127.155 31.514 126.089 31.7776 125.011 31.8614C122.843 31.9692 120.711 31.4781 118.621 30.9511C116.524 30.424 114.428 29.8251 112.272 29.6155C111.194 29.5257 110.104 29.5736 109.056 29.8311C108.002 30.0826 107.068 30.6816 106.241 31.3763C104.588 32.8197 103.432 34.7602 102.288 36.6647C101.144 38.5812 100.054 40.5816 98.5331 42.3005C97.7665 43.1449 96.8801 43.9175 95.838 44.4386C94.7959 44.9477 93.6939 45.289 92.5679 45.5526C90.316 46.0437 88.0162 46.2593 85.7523 46.6665C83.5124 47.0738 81.1766 47.7087 79.5176 49.3197C78.7151 50.1402 78.1581 51.1704 77.7448 52.2484C77.3256 53.3324 77.086 54.4824 76.8704 55.6323C76.4512 57.9441 76.2595 60.3158 75.6965 62.6455C75.427 63.8134 75.0318 64.9633 74.4209 66.0174C73.81 67.0715 72.9715 67.9819 72.0192 68.7305C70.1267 70.2517 67.9766 71.3777 65.9163 72.6354C64.8922 73.2703 63.88 73.9291 62.9457 74.6897C62.0293 75.4623 61.1969 76.3487 60.6219 77.3968C60.041 78.4389 59.7774 79.6427 59.7894 80.8465C59.7894 82.0563 59.9691 83.2661 60.2087 84.458C60.7177 86.8536 61.4724 89.2073 61.8796 91.6689C62.0892 92.8967 62.1671 94.1664 62.0054 95.4181C61.8437 96.6758 61.3586 97.8676 60.7537 98.9696C59.5079 101.162 57.8789 103.078 56.4355 105.114C55.7048 106.127 55.034 107.187 54.501 108.313C53.974 109.433 53.6026 110.642 53.5967 111.882C53.6026 113.122 53.968 114.332 54.489 115.452C55.0161 116.578 55.6869 117.638 56.4175 118.65C57.8609 120.692 59.49 122.609 60.7417 124.795C61.3466 125.891 61.8377 127.089 61.9994 128.346C62.1671 129.598 62.0952 130.868 61.8796 132.096C61.4783 134.557 60.7177 136.917 60.2087 139.312C59.9631 140.51 59.7834 141.72 59.7834 142.93C59.7714 144.14 60.035 145.337 60.6099 146.386C61.1789 147.434 62.0114 148.326 62.9277 149.099C63.862 149.859 64.8742 150.524 65.8983 151.159C67.9526 152.417 70.1087 153.543 72.0013 155.064C72.9475 155.812 73.798 156.723 74.4029 157.777C75.0138 158.831 75.4151 159.987 75.6786 161.149C76.2416 163.485 76.4332 165.856 76.8525 168.168C77.0621 169.324 77.3076 170.474 77.7269 171.552C78.1401 172.63 78.6971 173.66 79.4937 174.481C81.1526 176.092 83.4884 176.733 85.7283 177.14C87.9982 177.553 90.298 177.763 92.55 178.254C93.6699 178.517 94.7779 178.859 95.82 179.368C96.8621 179.889 97.7485 180.661 98.5151 181.506C100.036 183.225 101.126 185.225 102.27 187.148C103.42 189.052 104.576 190.993 106.223 192.436C107.05 193.131 107.984 193.73 109.038 193.981C110.086 194.245 111.176 194.287 112.254 194.197C114.416 193.987 116.512 193.388 118.603 192.861C120.693 192.334 122.825 191.843 124.993 191.951C126.071 192.035 127.137 192.298 128.113 192.741C129.078 193.197 130.006 193.73 130.868 194.335C132.617 195.52 134.222 196.856 135.929 198.018C136.786 198.587 137.654 199.144 138.582 199.557C139.038 199.797 139.523 199.934 139.996 200.108C140.235 200.174 140.487 200.222 140.733 200.282C140.858 200.306 140.978 200.342 141.098 200.36L141.475 200.39C143.494 200.617 145.434 199.779 147.135 198.773C148.842 197.736 150.399 196.485 151.998 195.311C153.591 194.143 155.238 193.011 157.107 192.364C159.005 191.759 161.018 191.891 162.892 192.256C164.779 192.61 166.606 193.143 168.426 193.58C170.241 194.011 172.086 194.359 173.9 194.221C175.727 194.095 177.38 193.179 178.62 191.897C179.86 190.609 180.818 189.088 181.734 187.579C182.644 186.064 183.501 184.53 184.495 183.105C185.489 181.686 186.675 180.356 188.19 179.529C189.7 178.697 191.365 178.314 192.994 178.02C194.629 177.733 196.252 177.547 197.839 177.284C199.426 177.02 200.989 176.691 202.421 176.056C203.852 175.439 205.074 174.421 205.828 173.103C206.601 171.797 207.002 170.324 207.302 168.875C207.889 165.964 208.056 163.047 208.829 160.328C209.218 158.975 209.805 157.669 210.704 156.627C211.59 155.579 212.674 154.752 213.758 154.016C215.944 152.542 218.232 151.416 220.214 150.003C221.202 149.296 222.131 148.536 222.879 147.637C223.616 146.733 224.131 145.697 224.365 144.607C224.622 143.517 224.556 142.403 224.455 141.343C224.347 140.277 224.113 139.253 223.892 138.252C223.412 136.258 222.873 134.377 222.538 132.551C222.197 130.736 222.113 128.933 222.55 127.334C222.993 125.735 223.814 124.405 224.604 123.232C226.227 120.89 227.791 119.045 228.815 117.386C229.875 115.751 230.42 114.35 230.611 113.373C230.749 112.894 230.737 112.511 230.767 112.26C230.791 112.008 230.803 111.882 230.803 111.882C230.803 111.882 230.803 112.008 230.779 112.26C230.755 112.511 230.767 112.894 230.635 113.379C230.456 114.362 229.917 115.781 228.863 117.422C227.838 119.087 226.287 120.944 224.676 123.286C223.892 124.465 223.077 125.789 222.646 127.364C222.221 128.939 222.304 130.724 222.646 132.527C222.981 134.341 223.526 136.222 224.011 138.216C224.233 139.217 224.479 140.247 224.586 141.325C224.688 142.397 224.754 143.523 224.497 144.637C224.263 145.751 223.73 146.817 222.987 147.739C222.233 148.655 221.292 149.422 220.298 150.135C218.298 151.56 216.016 152.692 213.842 154.159C212.764 154.896 211.698 155.711 210.823 156.741C209.949 157.765 209.374 159.041 208.991 160.382C208.23 163.077 208.062 165.988 207.481 168.917C207.182 170.378 206.781 171.869 205.99 173.211C205.217 174.564 203.948 175.625 202.492 176.253C201.037 176.9 199.456 177.236 197.863 177.499C196.27 177.763 194.641 177.948 193.018 178.242C191.401 178.535 189.754 178.919 188.286 179.733C186.813 180.536 185.657 181.835 184.675 183.243C183.693 184.656 182.842 186.189 181.926 187.705C181.015 189.22 180.051 190.753 178.781 192.071C177.524 193.376 175.787 194.341 173.912 194.466C172.044 194.61 170.181 194.251 168.354 193.826C166.528 193.388 164.707 192.855 162.832 192.508C160.976 192.149 159.011 192.029 157.173 192.61C155.352 193.239 153.723 194.359 152.136 195.526C150.549 196.7 148.986 197.952 147.255 199.006C146.811 199.246 146.386 199.527 145.913 199.725C145.68 199.833 145.452 199.946 145.218 200.042L144.494 200.3C143.517 200.599 142.475 200.797 141.433 200.659L141.044 200.629C140.918 200.611 140.792 200.575 140.661 200.551C140.409 200.491 140.152 200.443 139.9 200.372C139.415 200.192 138.912 200.048 138.451 199.803C137.498 199.377 136.624 198.814 135.756 198.239C134.037 197.066 132.426 195.73 130.695 194.556C129.838 193.957 128.928 193.436 127.982 192.987C127.023 192.556 126.005 192.304 124.957 192.22C122.849 192.119 120.741 192.598 118.657 193.125C116.566 193.646 114.464 194.257 112.26 194.466C111.158 194.556 110.032 194.514 108.942 194.245C107.84 193.981 106.864 193.352 106.008 192.64C104.307 191.154 103.145 189.19 101.989 187.279C100.845 185.357 99.7549 183.368 98.2636 181.686C97.509 180.859 96.6585 180.122 95.6523 179.613C94.6462 179.122 93.5561 178.787 92.4541 178.523C90.2262 178.038 87.9323 177.823 85.6445 177.409C84.5066 177.188 83.3566 176.954 82.2606 176.517C81.1646 176.092 80.1105 175.505 79.2541 174.666C78.4156 173.804 77.8347 172.738 77.4154 171.63C76.9842 170.522 76.7446 169.354 76.529 168.192C76.1038 165.862 75.9122 163.491 75.3552 161.191C75.0916 160.041 74.6964 158.915 74.1094 157.897C73.5225 156.885 72.708 156.004 71.7737 155.267C69.917 153.776 67.7729 152.65 65.7007 151.387C64.6706 150.746 63.6464 150.081 62.6941 149.302C61.7598 148.512 60.8974 147.595 60.2985 146.499C59.6996 145.409 59.4181 144.14 59.4361 142.9C59.4361 141.654 59.6217 140.426 59.8673 139.217C60.3763 136.803 61.137 134.443 61.5323 132.018C61.7419 130.808 61.8137 129.568 61.646 128.358C61.4843 127.148 61.0172 125.999 60.4243 124.921C59.1965 122.77 57.5734 120.854 56.1181 118.8C55.3874 117.776 54.6987 116.709 54.1596 115.554C53.6206 114.404 53.2433 113.146 53.2373 111.852C53.2493 110.553 53.6326 109.301 54.1716 108.151C54.7106 107.001 55.3994 105.929 56.1301 104.905C57.5854 102.857 59.2085 100.94 60.4303 98.79C61.0232 97.7119 61.4903 96.556 61.646 95.3462C61.8018 94.1364 61.7299 92.9026 61.5263 91.6928C61.125 89.2672 60.3704 86.9075 59.8553 84.4939C59.6097 83.2841 59.4241 82.0563 59.4301 80.8106C59.4181 79.5708 59.6936 78.3071 60.3045 77.2171C60.9034 76.1211 61.7658 75.2048 62.7001 74.4202C63.6524 73.6416 64.6765 72.9768 65.7067 72.336C67.7729 71.0723 69.917 69.9463 71.7737 68.455C72.708 67.7183 73.5165 66.8379 74.1034 65.8258C74.6904 64.8076 75.0797 63.6817 75.3432 62.5318C75.8942 60.2319 76.0918 57.8602 76.5171 55.5365C76.7327 54.3746 76.9782 53.2067 77.4035 52.0987C77.8227 50.9907 78.4036 49.9246 79.2421 49.0622C80.0986 48.2237 81.1586 47.6368 82.2546 47.2116C83.3507 46.7803 84.5006 46.5408 85.6385 46.3252C87.9264 45.9119 90.2202 45.7023 92.4422 45.2112C93.5502 44.9537 94.6342 44.6123 95.6404 44.1212C96.6465 43.6181 97.497 42.8754 98.2516 42.0489C99.7429 40.366 100.827 38.3776 101.971 36.4611C103.127 34.5505 104.283 32.5921 105.99 31.1008C106.846 30.3821 107.822 29.7592 108.924 29.4957C110.014 29.2262 111.14 29.1783 112.236 29.2741C114.434 29.4897 116.542 30.0946 118.633 30.6157C120.717 31.1427 122.825 31.6218 124.933 31.52C125.981 31.4422 126.999 31.1846 127.958 30.7594C128.904 30.3102 129.814 29.7892 130.671 29.1903C132.402 28.0164 134.013 26.6808 135.732 25.5069C136.6 24.932 137.474 24.369 138.427 23.9438C138.888 23.7042 139.391 23.5545 139.876 23.3748C140.128 23.3029 140.385 23.255 140.637 23.1951C140.762 23.1712 140.888 23.1353 141.02 23.1113L141.409 23.0813C142.445 22.9436 143.494 23.1472 144.47 23.4407L145.194 23.6982C145.434 23.7941 145.656 23.9138 145.889 24.0157C146.362 24.2133 146.788 24.4948 147.231 24.7343C148.962 25.7884 150.519 27.0402 152.112 28.214C153.699 29.3819 155.328 30.4959 157.149 31.1307C158.981 31.7117 160.946 31.5979 162.802 31.2326C164.671 30.8852 166.492 30.3522 168.324 29.9149C170.151 29.4837 172.014 29.1304 173.882 29.2681C175.763 29.3879 177.494 30.3522 178.758 31.6578C180.027 32.9754 180.985 34.5086 181.902 36.0179C182.812 37.5331 183.663 39.0663 184.645 40.4798C185.627 41.8872 186.783 43.1869 188.256 43.9894C189.724 44.8039 191.371 45.1872 192.988 45.4807C194.611 45.7682 196.234 45.9598 197.833 46.2234C199.426 46.4869 201.007 46.8223 202.462 47.4691C203.918 48.0979 205.194 49.158 205.966 50.5056C206.757 51.8471 207.164 53.3384 207.457 54.7998C208.044 57.7285 208.206 60.6392 208.967 63.3343C209.356 64.6699 209.919 65.9515 210.799 66.9757C211.668 68.0058 212.734 68.8263 213.812 69.557C215.986 71.0243 218.268 72.1563 220.268 73.5817C221.262 74.2944 222.203 75.061 222.957 75.9774C223.706 76.8997 224.233 77.9657 224.473 79.0737C224.73 80.1877 224.658 81.3137 224.562 82.3857C224.455 83.4638 224.209 84.4939 223.987 85.4941C223.508 87.4945 222.957 89.3691 222.622 91.1838C222.275 92.9925 222.191 94.7712 222.622 96.3464C223.053 97.9215 223.868 99.2511 224.652 100.425C226.263 102.767 227.82 104.623 228.839 106.288C229.893 107.929 230.432 109.349 230.611 110.331C230.743 110.816 230.725 111.199 230.755 111.451C230.773 111.703 230.779 111.828 230.779 111.828L230.833 111.936Z" fill="#263238"/>
<path d="M125.508 194.245C125.592 194.269 123.382 203.228 120.573 214.26C117.764 225.298 115.416 234.222 115.332 234.204C115.248 234.186 117.458 225.221 120.267 214.189C123.076 203.157 125.424 194.227 125.508 194.251V194.245Z" fill="#263238"/>
<path d="M142.139 166.305C172.166 166.305 196.508 141.963 196.508 111.936C196.508 81.9088 172.166 57.5668 142.139 57.5668C112.112 57.5668 87.7698 81.9088 87.7698 111.936C87.7698 141.963 112.112 166.305 142.139 166.305Z" fill="white"/>
<path d="M108.767 93.1183C108.019 93.8669 103.892 101.365 103.521 107.546C103.144 113.733 104.036 148.464 104.036 148.464L104.198 150.764C113.984 162.209 149.559 179.242 181.601 150.704L183.398 129.341L178.11 84.1166L159.741 79.6188L155.435 72.6355L126.729 79.3553L124.172 85.4043L108.767 93.1063V93.1183Z" fill="#CEECFB"/>
<path d="M153.339 54.4405C154.602 49.745 155.848 45.0076 156.285 40.1624C156.722 35.3172 156.315 30.3103 154.393 25.8424C154.099 25.1656 151.674 20.6438 150.943 20.7576C150.422 20.8354 151.991 25.0877 151.751 25.5549C149.446 30.0288 149.026 35.2812 149.691 40.2702C150.35 45.2591 151.626 49.7091 153.345 54.4405" fill="#263238"/>
<path d="M152.866 35.8801C152.632 23.6802 145.343 13.6484 133.149 14.2174L132.024 14.3372C120.722 15.529 112.223 25.2015 112.499 36.5629C112.756 47.1337 113.182 58.8125 113.841 64.4303C115.212 76.0612 127.047 76.6421 127.047 76.6421C127.071 76.6421 127.592 84.2902 127.592 84.2902L132.592 89.7224L155.776 75.3604L152.854 35.8801H152.866Z" fill="#FFBF9D"/>
<path d="M127.058 76.732C127.058 76.732 134.443 76.3906 141.744 70.653C141.744 70.653 139.3 81.1999 127.568 81.3736L127.052 76.732H127.058Z" fill="#F57265"/>
<path d="M119.201 46.0437C119.261 46.9241 120.058 47.6009 120.98 47.553C121.902 47.5051 122.597 46.7564 122.537 45.87C122.477 44.9896 121.681 44.3129 120.758 44.3608C119.836 44.4087 119.141 45.1633 119.201 46.0437Z" fill="#263238"/>
<path d="M115.5 41.1326C115.727 41.3302 116.889 40.2642 118.68 40.0785C120.465 39.8689 121.878 40.6535 122.046 40.4139C122.13 40.3061 121.878 39.9348 121.261 39.5814C120.656 39.2281 119.65 38.9226 118.536 39.0484C117.422 39.1742 116.53 39.6832 116.033 40.1564C115.53 40.6355 115.38 41.0488 115.494 41.1326H115.5Z" fill="#263238"/>
<path d="M135.006 44.7021C135.065 45.5825 135.862 46.2593 136.784 46.2113C137.707 46.1634 138.401 45.4148 138.342 44.5284C138.282 43.648 137.485 42.9712 136.563 43.0191C135.64 43.0671 134.946 43.8217 135.006 44.7021Z" fill="#263238"/>
<path d="M133.108 40.0067C133.336 40.2043 134.498 39.1382 136.288 38.9526C138.073 38.7429 139.481 39.5275 139.654 39.288C139.738 39.1802 139.493 38.8088 138.87 38.4555C138.265 38.1021 137.259 37.7967 136.145 37.9224C135.031 38.0482 134.138 38.5573 133.641 39.0304C133.138 39.5096 132.988 39.9228 133.102 40.0067H133.108Z" fill="#263238"/>
<path d="M128.137 54.4345C128.137 54.3326 127.005 54.2548 125.178 54.2189C124.717 54.2189 124.274 54.1769 124.166 53.8715C124.022 53.5541 124.166 53.039 124.328 52.482C124.639 51.3321 124.968 50.1223 125.31 48.8586C126.663 43.7079 127.592 39.4916 127.388 39.4377C127.178 39.3838 125.915 43.5163 124.561 48.6669C124.238 49.9366 123.926 51.1464 123.639 52.3023C123.519 52.8414 123.286 53.4582 123.591 54.123C123.753 54.4524 124.112 54.662 124.411 54.71C124.711 54.7699 124.968 54.7459 125.196 54.7339C127.023 54.6381 128.149 54.5303 128.143 54.4285L128.137 54.4345Z" fill="#263238"/>
<path d="M133.533 55.1172C133.24 55.1292 133.444 57.0757 131.922 58.6269C130.407 60.1841 128.317 60.1841 128.329 60.4596C128.317 60.5853 128.832 60.789 129.706 60.7231C130.569 60.6632 131.791 60.2559 132.719 59.3036C133.641 58.3514 133.959 57.1775 133.941 56.375C133.929 55.5545 133.659 55.0993 133.527 55.1232L133.533 55.1172Z" fill="#263238"/>
<path d="M132.437 32.7358C132.665 33.203 134.426 32.7838 136.552 32.8137C138.678 32.8017 140.439 33.2389 140.666 32.7718C140.768 32.5502 140.427 32.1249 139.69 31.7237C138.96 31.3224 137.834 30.993 136.558 30.987C135.282 30.987 134.15 31.3044 133.42 31.6937C132.683 32.083 132.336 32.5083 132.431 32.7299L132.437 32.7358Z" fill="#263238"/>
<path d="M115.613 35.1015C115.973 35.4728 117.159 34.9218 118.638 34.7481C120.111 34.5206 121.405 34.7302 121.65 34.275C121.752 34.0534 121.513 33.6701 120.926 33.3407C120.345 33.0173 119.411 32.7957 118.392 32.9334C117.374 33.0712 116.536 33.5324 116.063 34.0055C115.584 34.4786 115.458 34.9158 115.613 35.0955V35.1015Z" fill="#263238"/>
<path d="M152.824 44.6003C153.016 44.4925 160.574 41.3901 161.161 49.3796C161.748 57.3691 153.609 56.309 153.573 56.0755C153.543 55.8479 152.824 44.6003 152.824 44.6003Z" fill="#FFBF9D"/>
<path d="M155.789 52.8713C155.825 52.8413 155.933 52.9611 156.178 53.0509C156.418 53.1408 156.813 53.1827 157.22 52.997C158.041 52.6257 158.652 51.2362 158.586 49.7928C158.55 49.0622 158.352 48.3854 158.053 47.8284C157.765 47.2594 157.358 46.8821 156.927 46.8342C156.496 46.7683 156.214 47.0438 156.136 47.2774C156.046 47.511 156.106 47.6667 156.064 47.6787C156.046 47.7026 155.885 47.5589 155.921 47.2235C155.945 47.0618 156.022 46.8642 156.196 46.7025C156.376 46.5348 156.651 46.4329 156.951 46.4449C157.568 46.4449 158.167 46.966 158.496 47.5769C158.861 48.1878 159.107 48.9484 159.143 49.7689C159.209 51.38 158.496 52.9491 157.364 53.3684C156.813 53.554 156.334 53.4223 156.076 53.2486C155.813 53.0689 155.759 52.8952 155.789 52.8772V52.8713Z" fill="#F57265"/>
<path d="M116.823 22.9855C115.482 22.3567 119.093 17.9187 122.183 16.2717C126.849 13.7802 134.096 11.9715 138.606 12.9418C144.038 14.1096 148.637 16.4813 151.626 21.1589C154.615 25.8424 155.986 31.4302 156.19 36.9821C156.25 38.6771 156.19 40.4498 155.381 41.9351C154.381 43.7738 152.309 45.0255 152.56 47.4571C152.65 48.3435 152.458 49.2599 151.889 49.9486C150.53 51.5956 148.643 50.2541 147.727 48.8406C145.769 45.8221 145.331 42.0969 144.948 38.5213C144.673 35.9819 144.403 33.3827 144.966 30.8852C145.271 29.5257 145.816 28.226 146.05 26.8545C146.278 25.483 146.14 23.9498 145.23 22.9017C145.08 22.728 144.84 22.5184 144.541 22.2848C142.151 20.4461 138.941 20.0569 136.168 21.2427C131.772 23.1233 124.238 25.9981 122.129 24.5966C119.099 22.5843 118.314 21.1948 118.314 21.1948L116.835 22.9736L116.823 22.9855Z" fill="#263238"/>
<path d="M108.666 93.1003C108.205 93.7411 101.659 95.9152 99.1733 100.054C96.6878 104.192 94.2323 122.77 94.2323 122.77L92.6511 135C95.7655 139.929 99.9399 146.451 104.378 151.051L108.666 93.1063V93.1003Z" fill="#CEECFB"/>
<g opacity="0.3">
<path d="M157.849 111.038C158.125 113.529 158.406 116.051 159.263 118.41C160.119 120.764 161.622 122.98 163.82 124.196C164.737 124.705 165.779 125.04 166.545 125.753C167.372 126.52 167.785 127.634 168.534 128.478C169.402 129.46 170.66 130.005 171.894 130.448C175.553 131.748 179.164 132.365 183.045 132.227C183.165 130.946 183.171 126.238 183.291 124.956L157.849 111.044V111.038Z" fill="black"/>
</g>
<path d="M178.002 84.1046C178.002 84.1046 186.255 86.5482 188.674 90.0638C191.094 93.5794 195.376 107.211 196.257 109.738C197.137 112.265 196.364 118.129 194.717 122.339C193.07 126.55 190.207 130.179 185.266 130.73C180.325 131.281 172.516 128.424 170.761 126.556C169.006 124.687 168.269 120.495 168.269 120.495C170.461 120.111 172.629 119.566 174.75 118.871" fill="#CEECFB"/>
<path d="M174.75 118.86C174.75 118.86 174.714 118.878 174.648 118.908C174.564 118.938 174.462 118.973 174.336 119.021C174.061 119.117 173.648 119.255 173.103 119.417C172.013 119.74 170.396 120.183 168.287 120.573L168.353 120.477C168.539 121.411 168.802 122.435 169.198 123.507C169.395 124.04 169.623 124.591 169.91 125.124C170.204 125.657 170.545 126.196 171.018 126.628C171.492 127.059 172.079 127.406 172.689 127.73C173.3 128.059 173.953 128.346 174.63 128.622C175.989 129.167 177.457 129.64 179.014 130.011C180.571 130.371 182.224 130.64 183.937 130.646C184.368 130.664 184.793 130.61 185.225 130.586C185.65 130.515 186.087 130.479 186.512 130.359C187.369 130.167 188.207 129.844 188.992 129.395C190.573 128.52 191.909 127.155 192.927 125.556C193.957 123.956 194.711 122.142 195.262 120.249C195.694 118.794 196.011 117.32 196.215 115.859C196.424 114.398 196.526 112.936 196.43 111.517C196.376 110.804 196.245 110.134 195.999 109.469C195.778 108.798 195.556 108.133 195.34 107.474C194.903 106.163 194.472 104.875 194.053 103.623C193.202 101.12 192.364 98.7542 191.525 96.5562C190.669 94.3701 189.872 92.3218 188.872 90.603C188.381 89.7405 187.716 89.0638 187.009 88.5188C186.315 87.9558 185.596 87.5066 184.907 87.1113C183.53 86.3267 182.278 85.7757 181.248 85.3445C180.218 84.9193 179.403 84.6198 178.846 84.4222C178.583 84.3264 178.373 84.2545 178.217 84.2006C178.074 84.1527 178.002 84.1227 178.002 84.1167C178.002 84.1167 178.08 84.1287 178.223 84.1706C178.385 84.2186 178.595 84.2844 178.864 84.3623C179.427 84.542 180.248 84.8175 181.29 85.2307C182.332 85.644 183.596 86.189 184.991 86.9616C185.686 87.3509 186.416 87.8001 187.129 88.363C187.848 88.908 188.555 89.6088 189.058 90.4892C190.088 92.226 190.896 94.2743 191.765 96.4603C192.615 98.6583 193.466 101.024 194.322 103.528C194.747 104.779 195.179 106.067 195.622 107.379C195.843 108.037 196.065 108.696 196.287 109.367C196.532 110.032 196.682 110.768 196.736 111.493C196.838 112.948 196.736 114.428 196.526 115.901C196.317 117.38 195.999 118.866 195.562 120.339C194.999 122.256 194.238 124.094 193.184 125.729C192.148 127.364 190.771 128.766 189.136 129.664C188.327 130.125 187.459 130.455 186.578 130.652C186.141 130.772 185.692 130.814 185.255 130.886C184.811 130.91 184.368 130.964 183.937 130.946C182.188 130.934 180.517 130.658 178.948 130.287C177.379 129.91 175.9 129.425 174.534 128.868C173.851 128.586 173.192 128.293 172.576 127.951C171.959 127.622 171.366 127.262 170.863 126.807C170.366 126.346 170.018 125.783 169.725 125.238C169.431 124.687 169.204 124.13 169.012 123.585C168.629 122.495 168.371 121.465 168.192 120.519L168.174 120.435L168.257 120.423C170.366 120.064 171.983 119.644 173.079 119.345C173.612 119.195 174.025 119.075 174.324 118.991C174.456 118.956 174.558 118.926 174.642 118.902C174.714 118.884 174.75 118.872 174.75 118.878V118.86Z" fill="#263238"/>
<path d="M189.89 114.452C189.83 114.464 189.638 113.433 188.949 111.912C188.273 110.397 187.057 108.391 185.224 106.624C184.314 105.737 183.302 105.067 182.331 104.564C182.08 104.45 181.84 104.342 181.601 104.24C181.367 104.132 181.116 104.084 180.888 104.007C180.427 103.839 179.978 103.797 179.564 103.731C179.463 103.713 179.361 103.701 179.265 103.683C179.169 103.683 179.073 103.683 178.978 103.683C178.792 103.683 178.618 103.683 178.45 103.683C178.121 103.665 177.84 103.725 177.606 103.755C177.145 103.821 176.887 103.851 176.881 103.827C176.881 103.809 177.127 103.737 177.588 103.635C177.822 103.581 178.103 103.503 178.439 103.509C178.612 103.503 178.792 103.491 178.978 103.485C179.073 103.485 179.175 103.479 179.271 103.474C179.373 103.485 179.475 103.497 179.582 103.509C180.008 103.563 180.475 103.593 180.954 103.755C181.194 103.827 181.451 103.875 181.697 103.983C181.942 104.09 182.194 104.198 182.451 104.306C183.457 104.809 184.506 105.492 185.434 106.396C187.302 108.199 188.512 110.259 189.147 111.822C189.309 112.212 189.453 112.571 189.542 112.894C189.638 113.218 189.734 113.487 189.77 113.721C189.866 114.182 189.908 114.44 189.884 114.446L189.89 114.452Z" fill="#263238"/>
<path d="M194.394 107.043C194.328 107.067 194.101 105.983 193.148 104.528C192.214 103.096 190.429 101.305 187.89 100.545C185.356 99.7722 182.895 100.012 181.176 100.179C180.355 100.275 179.673 100.359 179.122 100.425C178.637 100.485 178.367 100.509 178.361 100.485C178.361 100.461 178.619 100.401 179.098 100.305C179.577 100.209 180.272 100.084 181.14 99.9579C182.859 99.7363 185.356 99.4548 187.968 100.245C189.267 100.641 190.405 101.305 191.298 102.066C192.202 102.821 192.855 103.659 193.322 104.408C193.789 105.162 194.053 105.827 194.202 106.3C194.352 106.768 194.394 107.037 194.382 107.043H194.394Z" fill="#263238"/>
<path d="M188.171 98.185C188.147 98.2869 185.997 97.5921 183.266 97.7179C180.529 97.8137 178.439 98.6702 178.409 98.5683C178.397 98.5324 178.894 98.2749 179.763 97.9994C180.625 97.7239 181.865 97.4604 183.254 97.4005C184.644 97.3466 185.896 97.5143 186.782 97.7239C187.668 97.9335 188.183 98.1491 188.171 98.185Z" fill="#263238"/>
<path d="M174.815 86.1649C174.863 86.1709 174.743 87.0094 174.647 88.3569C174.551 89.7105 174.503 91.5851 174.689 93.6453C174.857 95.6217 175.216 97.4005 175.533 98.6882L175.318 98.76C175.072 98.0653 174.881 97.5083 174.755 97.113C174.629 96.7178 174.569 96.5021 174.587 96.4962C174.605 96.4902 174.707 96.6938 174.869 97.0711C175.03 97.4484 175.258 97.9994 175.527 98.6822L175.312 98.7541C174.941 97.4664 174.545 95.6816 174.378 93.6813C174.192 91.603 174.27 89.7045 174.425 88.3509C174.503 87.6742 174.587 87.1292 174.665 86.7518C174.743 86.3745 174.791 86.1709 174.815 86.1769V86.1649Z" fill="#263238"/>
<path d="M163.148 70.7968C163.148 70.7968 158.866 70.7968 158.327 75.9474C157.913 79.9003 158.327 83.7393 158.327 85.4702C158.327 87.201 157.566 93.3578 157.566 93.3578C157.566 93.3578 154.643 95.9511 154.691 99.0655C154.739 102.198 156.967 103.15 156.967 103.15C156.967 103.15 155.608 106.115 158.201 108.84C158.201 108.84 156.955 111.709 157.979 113.643C158.77 115.14 160.549 115.637 160.549 115.637C160.549 115.637 159.285 118.464 162.321 119.656C164.118 120.357 166.771 120.201 166.771 120.201L169.97 120.141L172.784 121.698C172.784 121.698 177.606 119.596 177.731 116.751L177.857 113.907C177.857 113.907 176.498 109.211 176.372 107.726C176.246 106.24 177.486 102.659 176.743 101.048C176.001 99.4428 173.407 98.4965 173.653 96.2506C173.898 94.0047 173.407 92.7649 172.293 91.5312C171.179 90.2974 166.262 87.8239 166.262 87.8239C166.262 87.8239 164.999 84.2364 164.999 81.7629C164.999 79.2894 167.472 71.7491 163.142 70.8028L163.148 70.7968Z" fill="#FFBF9D"/>
<path d="M166.035 88.7522C166.059 88.7882 165.604 89.0816 164.849 89.5188C164.095 89.962 163.046 90.549 161.879 91.1838C160.711 91.8187 159.639 92.3816 158.86 92.7709C158.081 93.1602 157.584 93.3878 157.566 93.3459C157.548 93.304 158.004 93.0165 158.752 92.5733C159.507 92.1301 160.555 91.5432 161.723 90.9083C162.891 90.2735 163.957 89.7165 164.741 89.3212C165.52 88.9319 166.017 88.7043 166.035 88.7462V88.7522Z" fill="#F57265"/>
<path d="M168.844 98.4366C168.844 98.4366 168.724 98.5744 168.473 98.772C168.221 98.9757 167.844 99.2452 167.359 99.5566C166.394 100.185 164.987 100.952 163.346 101.581C161.699 102.21 160.142 102.575 159.004 102.755C158.435 102.845 157.974 102.899 157.65 102.917C157.327 102.934 157.153 102.94 157.147 102.917C157.147 102.869 157.842 102.773 158.962 102.539C160.082 102.306 161.609 101.91 163.232 101.293C164.855 100.671 166.257 99.9459 167.245 99.3709C168.233 98.796 168.82 98.4007 168.85 98.4426L168.844 98.4366Z" fill="#F57265"/>
<path d="M172.521 95.3582C172.599 95.3822 172.437 95.9332 171.928 96.3944C171.425 96.8555 170.862 96.9633 170.844 96.8855C170.814 96.8016 171.275 96.58 171.718 96.1608C172.173 95.7535 172.437 95.3163 172.521 95.3582Z" fill="#F57265"/>
<path d="M170.76 106.917C170.772 106.953 170.095 107.229 168.969 107.576C167.843 107.923 166.256 108.319 164.477 108.606C162.698 108.894 161.069 109.013 159.889 109.037C158.709 109.067 157.979 109.013 157.979 108.978C157.979 108.93 158.703 108.9 159.877 108.816C161.045 108.732 162.662 108.582 164.429 108.295C166.196 108.007 167.771 107.648 168.909 107.36C170.047 107.073 170.748 106.869 170.76 106.917Z" fill="#F57265"/>
<path d="M174.671 106.205C174.629 106.181 174.814 105.851 175 105.288C175.186 104.725 175.341 103.911 175.234 103.018C175.126 102.126 174.784 101.365 174.473 100.868C174.161 100.365 173.904 100.09 173.94 100.054C173.964 100.024 174.281 100.245 174.659 100.742C175.03 101.234 175.437 102.03 175.551 102.982C175.665 103.935 175.461 104.803 175.216 105.366C174.97 105.935 174.712 106.229 174.683 106.205H174.671Z" fill="#F57265"/>
<path d="M170.982 115.583C170.987 115.619 170.413 115.781 169.46 115.943C168.508 116.105 167.172 116.242 165.693 116.236C164.214 116.236 162.884 116.087 161.932 115.919C160.98 115.757 160.405 115.589 160.411 115.554C160.423 115.506 161.01 115.595 161.962 115.703C162.914 115.811 164.232 115.919 165.693 115.925C167.154 115.925 168.472 115.829 169.43 115.721C170.383 115.619 170.976 115.536 170.982 115.583Z" fill="#F57265"/>
<path d="M163.376 81.8288C163.394 81.8647 163.184 82.0204 162.783 82.1642C162.388 82.3079 161.789 82.4097 161.142 82.3319C160.495 82.254 159.938 82.0145 159.585 81.7809C159.231 81.5473 159.064 81.3437 159.088 81.3137C159.142 81.2359 159.956 81.8887 161.178 82.0204C162.4 82.1762 163.34 81.7389 163.376 81.8228V81.8288Z" fill="#F57265"/>
<path d="M175.563 106.564C175.563 106.564 175.617 106.726 175.629 107.025C175.635 107.324 175.599 107.762 175.479 108.289C175.366 108.816 175.168 109.421 174.976 110.085C174.797 110.75 174.623 111.505 174.755 112.266C174.857 113.02 175.426 113.637 175.515 114.41C175.617 115.164 175.318 115.805 175.042 116.26C174.755 116.721 174.473 117.051 174.27 117.266C174.066 117.482 173.94 117.596 173.928 117.578C173.88 117.542 174.341 117.051 174.857 116.146C175.096 115.697 175.342 115.098 175.234 114.446C175.162 113.793 174.587 113.182 174.449 112.313C174.306 111.463 174.509 110.672 174.707 110.002C174.916 109.325 175.132 108.738 175.27 108.229C175.569 107.217 175.509 106.558 175.563 106.558V106.564Z" fill="#F57265"/>
<path d="M177.175 110.331C177.175 110.331 177.271 110.523 177.379 110.894C177.486 111.259 177.63 111.798 177.768 112.475C177.9 113.152 178.031 113.96 178.055 114.877C178.073 115.787 177.983 116.829 177.516 117.811C177.037 118.776 176.342 119.536 175.678 120.159C175.007 120.776 174.342 121.267 173.773 121.65C173.204 122.034 172.731 122.321 172.396 122.513C172.06 122.699 171.869 122.794 171.857 122.776C171.833 122.735 172.545 122.285 173.647 121.477C174.192 121.07 174.833 120.572 175.48 119.956C176.121 119.333 176.786 118.596 177.235 117.686C177.672 116.775 177.774 115.781 177.768 114.889C177.768 113.996 177.654 113.194 177.552 112.517C177.331 111.175 177.133 110.349 177.181 110.337L177.175 110.331Z" fill="#263238"/>
<path d="M131.982 90.3932C131.982 90.3932 131.725 90.2256 131.287 89.8722C130.814 89.4829 130.575 89.3691 130.335 89.2493C130.078 89.1236 129.79 89.0876 129.533 89.2194C129.018 89.4889 128.67 90.1537 128.227 90.7047C127.802 91.2796 127.359 91.8726 126.909 92.4835C126.185 93.4537 126.191 93.5375 125.55 94.4L125.161 94.915L125.286 94.2802C125.706 92.1121 122.777 88.7103 123.262 87.4586C123.502 86.8357 123.717 86.3446 123.873 86.0152C124.029 85.6858 124.124 85.5121 124.136 85.5181C124.154 85.5241 124.088 85.7097 123.963 86.0511C123.837 86.3925 123.651 86.8896 123.436 87.5185C123.004 88.7822 125.975 92.178 125.58 94.3281L125.316 94.2143C125.957 93.3519 125.945 93.262 126.664 92.2918C127.119 91.6869 127.562 91.094 127.987 90.519C128.203 90.2315 128.413 89.9501 128.622 89.6746C128.838 89.3991 129.077 89.1176 129.413 88.9559C129.754 88.7822 130.167 88.8421 130.461 88.9978C130.76 89.1535 130.91 89.3631 131.371 89.7704C131.778 90.1477 132 90.3633 131.988 90.3813L131.982 90.3932Z" fill="#263238"/>
<path d="M156.8 85.0569C156.8 85.0569 156.728 85.1348 156.567 85.2665C156.375 85.4163 156.141 85.5959 155.86 85.8175C155.201 86.3146 154.309 86.9854 153.219 87.8059C150.937 89.4829 143.067 94.1904 139.635 96.7178L139.503 96.8136L139.414 96.6758C139.342 96.568 139.27 96.4483 139.198 96.3345C137.575 93.7711 136.06 91.3815 134.778 89.3511L134.94 89.405C132.826 90.2435 133.047 90.537 133.035 90.525C133.029 90.513 132.227 90.2435 134.347 89.3691C134.347 89.3691 134.826 89.1355 134.916 89.1774C135.024 89.2254 135.191 89.5548 135.191 89.5548C136.485 91.5731 137.821 93.6094 139.456 96.1668C139.527 96.2866 139.605 96.4003 139.671 96.5081L139.45 96.4662C142.905 93.9688 150.793 89.2853 153.093 87.6263C154.207 86.8417 155.117 86.1949 155.788 85.7217C156.087 85.5181 156.333 85.3504 156.531 85.2186C156.704 85.1048 156.794 85.0509 156.8 85.0569Z" fill="#263238"/>
<path d="M103.521 109.145C103.521 109.145 103.545 109.289 103.551 109.57C103.557 109.876 103.569 110.283 103.587 110.78C103.605 111.87 103.635 113.385 103.671 115.236C103.742 118.997 103.892 124.196 104.09 129.939C104.288 135.683 104.401 140.888 104.413 144.649C104.419 146.529 104.413 148.057 104.395 149.111C104.383 149.614 104.377 150.015 104.371 150.32C104.359 150.596 104.353 150.746 104.341 150.746C104.329 150.746 104.317 150.602 104.311 150.32C104.305 150.015 104.293 149.608 104.276 149.111C104.258 148.021 104.228 146.511 104.192 144.655C104.12 140.894 103.97 135.695 103.772 129.951C103.575 124.208 103.461 119.009 103.449 115.242C103.443 113.362 103.449 111.834 103.467 110.78C103.479 110.277 103.485 109.876 103.491 109.57C103.503 109.295 103.509 109.145 103.521 109.145Z" fill="#263238"/>
<path d="M132.179 163.245C132.179 163.245 132.161 163.185 132.149 163.071C132.137 162.94 132.113 162.772 132.089 162.562C132.042 162.095 131.982 161.436 131.898 160.604C131.73 158.903 131.538 156.435 131.347 153.387C131.149 150.338 130.993 146.703 130.886 142.66C130.796 138.618 130.778 134.174 130.874 129.514C130.981 124.849 131.197 120.411 131.461 116.374C131.742 112.343 132.059 108.714 132.383 105.677C132.706 102.641 133.006 100.185 133.245 98.4905C133.365 97.664 133.455 97.0112 133.521 96.544C133.551 96.3344 133.581 96.1727 133.599 96.0409C133.617 95.9271 133.629 95.8673 133.635 95.8673C133.635 95.8673 133.635 95.9271 133.629 96.0409C133.617 96.1727 133.599 96.3404 133.581 96.55C133.527 97.0172 133.455 97.676 133.359 98.5025C133.156 100.197 132.892 102.659 132.599 105.695C132.299 108.732 132.006 112.361 131.742 116.392C131.497 120.423 131.287 124.861 131.179 129.52C131.083 134.18 131.095 138.618 131.167 142.654C131.257 146.691 131.389 150.326 131.556 153.375C131.718 156.423 131.88 158.891 132.006 160.598C132.06 161.43 132.107 162.089 132.137 162.562C132.149 162.772 132.155 162.94 132.161 163.071C132.161 163.185 132.161 163.245 132.161 163.245H132.179Z" fill="#263238"/>
<path d="M114.332 65.2089C114.332 65.2089 114.122 65.3587 113.697 65.6342C113.271 65.9097 112.643 66.3169 111.822 66.85C111.002 67.383 110.049 68.1436 108.887 68.9881C108.312 69.4193 107.743 69.9404 107.103 70.4614C106.785 70.7249 106.462 71.0004 106.126 71.2819C105.797 71.5694 105.48 71.8928 105.138 72.2102C102.413 74.7436 99.3228 78.1455 96.4779 82.6074C96.1306 83.1703 95.7712 83.7393 95.4119 84.3203C95.0345 84.8952 94.7471 85.5301 94.3997 86.141C94.0763 86.7698 93.7109 87.3867 93.3995 88.0455C93.1001 88.7103 92.7886 89.3811 92.4772 90.0638C92.3275 90.4052 92.1538 90.7466 92.016 91.1C91.8783 91.4533 91.7465 91.8127 91.6088 92.172C91.3393 92.8967 91.0458 93.6214 90.7823 94.364C90.3391 95.8853 89.7821 97.4125 89.4467 99.0475C88.6142 102.27 88.159 105.743 87.9734 109.367C87.7637 112.99 87.9794 116.787 88.6022 120.65C89.8659 128.358 92.9024 136.384 98.071 143.517C103.174 150.674 110.385 156.897 119.039 160.987C127.681 165.102 137.791 166.88 147.889 165.838C157.998 164.79 167.473 160.807 175.061 154.992C176.972 153.555 178.733 151.956 180.416 150.321C180.823 149.895 181.224 149.476 181.631 149.051C182.039 148.632 182.434 148.206 182.811 147.757C183.195 147.32 183.572 146.877 183.949 146.44C184.309 145.984 184.662 145.529 185.021 145.08C187.866 141.457 190.112 137.51 191.891 133.491C193.664 129.466 194.837 125.304 195.556 121.207C195.927 119.159 196.131 117.111 196.269 115.092C196.335 114.086 196.329 113.08 196.365 112.086C196.347 111.092 196.293 110.109 196.257 109.127C196.239 108.636 196.221 108.151 196.197 107.666C196.167 107.181 196.089 106.708 196.035 106.229C195.921 105.276 195.808 104.33 195.694 103.39C195.544 102.461 195.329 101.545 195.155 100.641C194.969 99.7363 194.813 98.8259 194.532 97.9635C194.28 97.0891 194.035 96.2267 193.783 95.3702C193.676 94.939 193.52 94.5257 193.358 94.1125C193.202 93.6992 193.047 93.292 192.897 92.8847C192.58 92.0762 192.316 91.2497 191.963 90.4771C191.603 89.7045 191.244 88.9439 190.891 88.1892C187.998 82.1881 184.285 77.3369 180.559 73.5937C176.816 69.8385 173.055 67.2093 169.881 65.2748C169.072 64.8137 168.312 64.3705 167.593 63.9632C167.24 63.7476 166.88 63.5799 166.527 63.4122C166.179 63.2445 165.844 63.0888 165.521 62.9331C164.874 62.6216 164.275 62.3402 163.73 62.0766C163.191 61.8011 162.658 61.6454 162.209 61.4598C161.298 61.1064 160.604 60.8369 160.124 60.6512C159.657 60.4656 159.418 60.3637 159.418 60.3637C159.418 60.3637 159.663 60.4476 160.136 60.6213C160.616 60.8009 161.316 61.0585 162.233 61.3999C162.688 61.5855 163.221 61.7352 163.766 62.0048C164.317 62.2623 164.916 62.5438 165.569 62.8492C165.892 62.999 166.233 63.1607 166.581 63.3224C166.934 63.4841 167.299 63.6518 167.653 63.8674C168.371 64.2746 169.138 64.7118 169.953 65.173C173.139 67.1015 176.924 69.7188 180.691 73.4739C184.44 77.2172 188.183 82.0743 191.1 88.0994C191.454 88.854 191.813 89.6206 192.178 90.3932C192.538 91.1658 192.801 91.9983 193.125 92.8069C193.28 93.2141 193.436 93.6274 193.592 94.0406C193.753 94.4539 193.909 94.8671 194.017 95.3043C194.268 96.1608 194.514 97.0292 194.772 97.9036C195.053 98.772 195.215 99.6824 195.406 100.593C195.586 101.503 195.802 102.419 195.951 103.354C196.065 104.294 196.185 105.246 196.299 106.205C196.353 106.684 196.431 107.163 196.46 107.648C196.478 108.133 196.502 108.624 196.52 109.115C196.556 110.097 196.61 111.086 196.634 112.086C196.598 113.086 196.604 114.092 196.538 115.104C196.407 117.129 196.203 119.189 195.832 121.249C195.113 125.37 193.933 129.55 192.16 133.605C190.382 137.647 188.124 141.618 185.267 145.26C184.907 145.715 184.548 146.17 184.189 146.625C183.805 147.062 183.428 147.506 183.045 147.949C182.668 148.398 182.272 148.829 181.859 149.248C181.452 149.674 181.044 150.099 180.637 150.524C178.942 152.165 177.175 153.776 175.253 155.226C167.629 161.083 158.1 165.084 147.931 166.138C137.779 167.192 127.609 165.401 118.919 161.257C110.211 157.136 102.97 150.877 97.8434 143.679C92.6569 136.504 89.6084 128.43 88.3507 120.686C87.7278 116.805 87.5182 112.996 87.7338 109.355C87.9255 105.713 88.3926 102.228 89.2311 98.9936C89.5725 97.3526 90.1354 95.8194 90.5846 94.2982C90.8541 93.5495 91.1416 92.8248 91.4171 92.1001C91.5549 91.7408 91.6926 91.3815 91.8304 91.0221C91.9741 90.6687 92.1418 90.3274 92.2975 89.986C92.6089 89.3032 92.9204 88.6264 93.2258 87.9617C93.5373 87.3029 93.9086 86.68 94.238 86.0511C94.5854 85.4342 94.8788 84.7994 95.2561 84.2244C95.6215 83.6435 95.9808 83.0685 96.3282 82.5116C99.197 78.0437 102.311 74.6418 105.054 72.1204C105.396 71.803 105.719 71.4796 106.049 71.1921C106.39 70.9106 106.713 70.6351 107.037 70.3716C107.678 69.8505 108.259 69.3355 108.834 68.9042C110.001 68.0718 110.96 67.3171 111.792 66.7901C112.619 66.269 113.253 65.8678 113.685 65.5982C114.11 65.3287 114.332 65.203 114.332 65.203V65.2089Z" fill="#263238"/>
<path d="M131.748 90.9682H135.461L136.575 96.053L133.323 99.9878L130.053 99.6584L128.981 96.011L129.862 93.9747L131.748 90.9682Z" fill="#4B9AC2"/>
<g opacity="0.3">
<path d="M133.055 100.838C134.139 109.511 134.947 128.412 135.241 137.15C135.492 144.469 135.462 151.788 135.438 159.113C135.432 161.472 135.403 163.91 134.432 166.06C132.689 169.923 128.419 171.863 124.496 173.474L133.049 100.838H133.055Z" fill="black"/>
</g>
<path d="M123.304 172.223L118.818 161.233L130.054 99.6585L133.33 99.9879C133.33 99.9879 132.875 163.982 133.018 164.563L123.31 172.229L123.304 172.223Z" fill="#4B9AC2"/>
<path d="M130.173 99.6644C130.167 99.7124 130.862 99.8561 131.73 99.916C132.598 99.9819 133.305 99.9399 133.305 99.892C133.305 99.8441 132.604 99.8082 131.742 99.7423C130.88 99.6824 130.179 99.6105 130.173 99.6644Z" fill="#263238"/>
</svg>
